<svg xmlns="http://www.w3.org/2000/svg" width="983" height="260"><path fill="#fe6717" d="m186 6 2.333.535C217.979 13.622 252.095 34.845 270 60v2c5.407-1.18 10.122-2.81 15.117-5.195C287 56 287 56 289 56l1-2c2.512-.852 2.512-.852 5.688-1.625 1.035-.26 2.07-.52 3.136-.79 3.138-.578 5.994-.69 9.176-.585.75 2.125.75 2.125 1 5-5.36 10.72-16.258 17.63-26 24l.854 2.073c12.56 30.587 18.756 58.431 14.896 91.552-.11 1.003-.218 2.006-.33 3.039l-.373 2.813-.318 2.502C297 184 297 184 295.251 185.309c-2.701.83-4.516.668-7.31.28-27.922-3.11-58.28 6.081-82.793 18.903-7.093 3.602-7.093 3.602-12.066 3.16A62 62 0 0 1 189 206l-2.713-1.132c-3.224-1.387-6.411-2.84-9.6-4.305a2561 2561 0 0 0-7.207-3.243l-1.858-.832c-6.658-2.97-13.377-5.784-20.122-8.55l-3.302-1.371c-5.974-2.433-11.85-4.412-18.134-5.889L124 180l-1-2c-2.093-.512-4.191-1.01-6.303-1.437-2.804-.585-5.562-1.277-8.334-2-14.717-3.813-28.493-6.904-43.769-6.578-3.168.065-5.56.027-8.594-.985-17.312-.755-34.47.49-51 6-7.686-37.234.33-74.526 20.875-106.297C31.908 57.566 31.908 57.566 35 54h2c.274-.597.547-1.194.83-1.808 11.919-22.315 45.147-37.754 68.045-44.735C132.09-.043 159.502-.143 186 6"/><path fill="#fdf6ef" d="M93 32c9.938 3.448 14.832 8.319 19.813 17.25 1.645 5.197 1.929 10.326 2.187 15.75l1.305-2.309c4.551-7.225 11.665-10.685 19.562-13.312 2.922-.52 5.613-.334 8.57-.129l3.372.203c3.37.578 5.404 1.61 8.191 3.547-2.506 3.76-3.82 3.726-8.125 4.688-1.096.25-2.191.502-3.32.761L142 59v2h5v2h2v2l-3.75.188c-6.22.654-11.615 3.228-17.25 5.812l3.953-.176c11.924-.37 21.61.183 31.547 7.551 4.898 5.143 8.003 11.254 8.813 18.375L172 99l-3 2a376 376 0 0 1-3-2.875l-1.687-1.617C163 95 163 95 163 93c-2.332-1.206-4.496-2.165-7-3l-1 4-3.5-1.187c-4.614-1.534-9.24-3.028-13.875-4.5l-2.127-.687C132.552 86.696 130.11 86 127 86c.63.4 1.258.802 1.906 1.215C140.256 94.753 146.69 103.069 151 116c.122 2.638.185 5.237.188 7.875l.037 2.145c.011 4.114-.39 7.282-2.225 10.98h-3l-8-17-2 2c-1.973.078-1.973.078-4-1a58 58 0 0 1-2.437-7.25c-1.496-5.603-3.006-8.824-7.563-12.75l.105 3c.263 10.477-.564 17.535-7.605 25.75C113 131 113 131 110 131q-.04-4.156-.062-8.312l-.026-2.381-.01-2.295-.016-2.11C110 114 110 114 111 111l-3-1c-1.945-4.406-2.355-8.6-2.625-13.375l-.227-3.773L105 90c-15.288 24.562-21.961 48.526-26 77l2 1c-3.625.058-7.25.094-10.875.125-1.033.017-2.065.034-3.129.05l-2.988.02-2.761.032C59 168 59 168 57 166c.195-3.073.52-5.968 1-9l.43-2.72c4.743-27.844 18.507-49 38.57-68.28-9.306 2.878-16.531 8.17-23.871 14.46C71 102 71 102 68 102l-1-6-7 8c-3-2-3-2-4-5l-2.23 2.3-2.958 3.013-1.462 1.513c-2.894 2.933-5.665 5.31-9.35 7.174h-2c-.801-8.331 1.788-15.564 6.691-22.336C54.254 80.244 69.175 75.671 83 75c4.002-.068 7.998-.06 12 0v-2l-3.437.125c-4.833 0-9.579-.462-14.376-1l-2.245-.238C71.268 71.452 68.168 70.98 65 69l3-4-2.75 1.563C61.718 68.125 61.419 68.07 58 67q-2.187-.473-4.375-.937C45.95 64.326 45.95 64.326 43 63c-.656-2.07-.656-2.07-1-4q3.372-1.725 6.75-3.437l1.922-.987c10.135-5.12 20.641-4.604 31.473-1.556C89.362 55.498 95.39 58.834 101 64l-1.277-1.645-1.66-2.167-1.653-2.145C95 56 95 56 94 53h-2v-2l3-1-1.54-1.031C88.44 45.434 83.836 41.563 81 36l1-3c3.576-1.788 7.15-1.572 11-1"/><path fill="#fe6917" d="m91.625 193.75 2.687.256c8.175.836 16.253 2.144 24.34 3.585A201 201 0 0 0 137 200v2c1.002.095 2.003.19 3.035.29 6.173.772 12.213 2.24 18.275 3.606 34.666 7.8 72.59 15.3 104.69-4.896l3-2v2l2 1h-2l-.77 1.742c-8.806 16.16-32 26.01-48.793 31.07-18.012 5.117-36.83 5.435-55.437 5.188l-1 2v-3l-39 1-1 2v-2c-17.835 3.39-32.96 6.798-48.102 17.11C69 259 69 259 66 260l-2.187-2.25c-2.684-2.725-2.684-2.725-5.376-4.75-2.565-2.105-4.451-4.352-6.437-7 12.404-14.026 35.371-18.116 53-20 4.547-.254 9.072-.285 13.625-.25l3.812.012c8.271.074 16.45.536 24.688 1.238 12.61 1.07 25.163 1.197 37.813 1.188l2.909.002q4.121-.002 8.243-.022l2.502-.004c3.933-.032 7.568-.197 11.408-1.164v-1l-1.912.016q-4.263.029-8.525.047l-3.01.025-2.862.01-2.65.016C189 226 189 226 188 225a69 69 0 0 0-4.207-.43l-2.686-.216-2.92-.229c-7.468-.626-14.85-1.442-22.25-2.625-16.488-2.543-32.642-3.702-49.33-3.797q-2.75-.015-5.498-.044c-15.34-.142-30.3 1.116-45.046 5.654l-2.097.621c-5.34 1.668-10.04 4.014-14.767 7.027C37 232 37 232 34.906 231.902c-2.47-1.169-3.483-2.508-5.093-4.714l-1.793-2.438L26 222l-2.488-3.125L21 215.688l-2.375-2.989C17 210 17 210 17.192 207.95c1.414-3.41 5.027-4.272 8.246-5.637l2.103-.931A714 714 0 0 1 33 199l2-1c1.785-.346 3.579-.652 5.375-.937 3.214-.514 6.425-1.027 9.629-1.602 13.858-2.473 27.619-3.068 41.621-1.711M212 225v2l3.813-.375c.707-.07 1.415-.14 2.144-.21 2.343-.342 2.343-.342 5.043-2.415-5.578-.125-5.578-.125-11 1"/><path fill="#fe6717" d="m676.875 71.625 2.118.005c6.789.16 11.962 1.61 17.007 6.183 2.246 4.913 2.39 8.904.75 14-3.78 8.655-12.033 14.202-19.75 19.187 1.66 4.056 4.503 7.016 7.438 10.188l1.486 1.654c2.322 2.529 3.767 4.055 7.076 5.158l1-2h2l3-11h-4c-2-3-2-3-2-7 5.124-1.683 9.422-2.247 14.875-2.187l3.992.019C715 106 715 106 716 107c-.384 10.556-5.664 18.084-12.426 25.871-1.871 2.09-1.871 2.09-1.574 5.129l3 1 4 4c3.29 1.097 4.713.8 8 0v2h2v-3h2c.087 4.084-.297 6.106-2.86 9.363-7.77 7.966-7.77 7.966-13.14 9.637-6.58-.364-9.66-3.871-14.316-8.164-2.494-2.086-2.494-2.086-5.239-1.79-2.612 1.019-4.69 2.253-7.008 3.829-7.746 4.795-17.295 7.498-26.437 6.125-7.786-1.832-12.401-4.495-17-11l-2-2c-1.817-8.085-1.2-14.848 3-22 4.325-6.157 9.952-10.612 16-15l-.91-2.457c-2.538-7.39-4.342-13.866-2.09-21.543 3.476-6.778 9.068-11.65 16.23-14.11 3.931-.928 7.628-1.275 11.645-1.265M677 82v2l-1.687-.812c-2.54-.453-2.54-.453-5 1.687-2.975 4.02-3.642 7.166-3.313 12.125.75 2.583 1.726 4.606 3 7l3-1v-2h2c3.225-4.153 6.42-8.716 6.375-14.125L681 84zm-18 38c-5.465 5.234-5.465 5.234-8.062 12.125.082 5.092.7 8.3 4.062 12.188 3.658 3.086 6.528 3.008 11.18 2.988 4.637-.495 8.641-2.31 12.82-4.301-1.347-2.934-2.886-5.25-5-7.687l-1.562-1.825c-1.388-1.602-1.388-1.602-3.438-2.488l-1.5-2.562L666 126h-2l-1-2a181 181 0 0 0-4-4"/><path fill="#fe6716" d="m480 102 1 1c-.228 6.667-1.488 13.303-2.562 19.875-1.174 7.425-1.851 14.592-1.438 22.125l5 1v-2h2l.375 1.938L485 148l2 1c-3.651 6.007-7.381 9.441-14 12-5.145.686-7.8-.048-12-3a174 174 0 0 0-4-2l1-7-1.937 2.125c-5.36 5.284-11.125 9.707-18.864 10.031-3.848-.273-6.979-.967-10.199-3.156-5.972-6.995-6.602-14.093-6-23 1.641-11.564 6.83-21.183 15.95-28.566C449.924 97.363 465.11 99.24 480 102m-29.195 10.516c-6.811 5.602-10.203 14.384-11.051 22.976-.113 4.057-.015 7.014 2.246 10.508 2.946 1.362 2.946 1.362 5.438-.125 8.15-5.963 11.275-16.438 13.398-25.937.187-2.208-.245-3.815-.836-5.938v-3c-3.57-1.713-5.98-.499-9.195 1.516"/><path fill="#fe6918" d="M332 73h69c-2 13-2 13-3 14a91 91 0 0 1-5.129.098l-3.135-.01-3.298-.025-3.311-.014Q379.063 87.03 375 87q-1.418 9.807-2.826 19.617-.477 3.319-.957 6.637A2051 2051 0 0 0 365 160l-7.325.092q-2.83.037-5.659.088l-2.446.015-2.507.032C345 160 345 160 343 158c.242-2.172.242-2.172.875-4.75.876-3.857 1.227-7.281 1.125-11.25l1-1c.292-1.466.528-2.944.74-4.425l.415-2.853.439-3.109.46-3.18q.727-5.06 1.446-10.12.722-5.033 1.447-10.067.45-3.135.898-6.274c.667-4.667 1.35-9.326 2.155-13.972-8.372 1.149-16.7 2.408-25 4q.175-2.533.375-5.062c.07-.94.14-1.88.21-2.848C330 80 330 80 332 73"/><path fill="#fe6718" d="M785 72v2l2-1c2.672-.134 5.323-.043 8 0l1-2c.22 6.178-.393 9.573-2 16h-24l-.375 6.938c-.21 3.902-.21 3.902-.625 7.062l-2 1c-.383 2.35-.383 2.35-.469 5.277-.534 8.573-1.608 17.055-2.688 25.574q-.518 4.106-1.027 8.213l-.66 5.252-.306 2.466c-.443 3.47-.954 6.837-1.85 10.218-6.656 1.238-13.247 1.091-20 1-1.042-3.125-.972-4.27-.441-7.422l.42-2.61.458-2.718c.975-5.82 1.765-11.342 1.563-17.25h2l.146-2.288c.62-8.894 1.698-17.697 2.917-26.525l.564-4.158Q748.308 92.014 749 87l-15.817 2.636L731 90l-6 1q.475-5.002 1-10l.219-2.187c.188-1.615.475-3.217.781-4.813 2.473-1.237 3.85-1.019 6.602-.844l2.892.163 3.131.181c12.511.64 24.878.238 37.375-.5v-1c3.287-.8 4.71-1.097 8 0m73 29q-.172 4.157-.375 8.313l-.094 2.38-.117 2.295-.095 2.11C857 118 857 118 855 121c-1.794 7.275-2.297 14.535-2 22l4-1 1 3c10.711-11.324 13.11-26.954 14-42 4.356-1.628 8.24-2.341 12.875-2.625l3.492-.227L891 100c1.267 3.653.756 6.415.04 10.172l-.68 3.683-.735 3.895c-1.912 10.435-3.441 20.633-3.625 31.25l7-3 2 3c-2.408 5.16-4.26 8.607-9.687 10.688-4.38 1.5-7.7 2.004-12.313 1.312-3.585-3.868-4.798-7.993-6-13l-1.066 1.61c-4.953 7.086-9.43 10.06-17.871 11.64-1.686.263-3.373.518-5.063.75v-2l-2.312-.687c-3.282-1.603-4.108-3.075-5.688-6.313-1.175-3.526-1.15-6.708-1.125-10.375l.006-2.135c.053-6.523.496-12.997 1.119-19.49h2l.184-1.941c.26-2.688.535-5.374.816-8.059l.219-2.152c.546-4.613.546-4.613 2.781-6.848 2.645-.668 2.645-.668 5.813-1.187l3.144-.543c2.963-.263 5.181-.016 8.043.73"/><path fill="#fe6818" d="M820.977 103.453c5.612 4.291 8.08 9.637 9.023 16.547.708 11.15-2.475 21.432-9.375 30.313-6.708 6.867-13.992 10.804-23.75 10.937-4.022-.126-7.913-.56-11.875-1.25v-2l-2.3.277c-2.7-.277-2.7-.277-4.43-2.21l-1.457-2.505c-1.83-3.39-1.83-3.39-4.813-5.562-.557-14.802-.443-26.993 9.71-38.8 10.402-9.993 26.454-13.324 39.267-5.747M796 116c-3.788 6.758-5.158 12.714-5.25 20.438l-.078 3.933c.343 3.792 1.032 5.639 3.328 8.629 2.644 1.322 3.773 1.065 6.625.25 2.659-1.158 2.659-1.158 4.375-4.25l-2-2 5-1c2.745-7.818 4.676-14.679 4-23l-3-1 .625-2.375L810 113c-1.863-2.254-1.863-2.254-4.75-2.437-4.228.569-6.609 2.208-9.25 5.437m14-1 1 2ZM571.438 99.813l3.37-.043c3.92.283 6.725 1.496 10.192 3.23 2.231 4.186 3.967 8.36 4.063 13.125-2.55 6.9-6.332 12.51-13.063 15.875l1 2c-.853.09-.853.09-1.723.184A362 362 0 0 0 561 136v2l-5-1c1.008 5.033 1.008 5.033 4.125 8.938 4.407 1.628 8.639 1.932 13.125.187L575 145l2.125-1c2.414-1.288 3.651-2.553 4.875-5h3c-.137 5.507-.72 10.025-4.203 14.43-5.998 5.241-14.477 7.9-22.324 7.785-6.956-.604-12.673-3.08-17.473-8.215-4.834-7.964-5.703-15.463-3.937-24.5 1.548-6.1 4.069-10.594 7.937-15.5l1.563-2.246L548 109h2v-2l3-3v-2l5.86-.684c2.112-.266 2.112-.266 4.003-.84 2.882-.642 5.625-.646 8.574-.663M561 115v3h-2c-2.16 3.43-1.813 5.139-1 9l-2 2c6.669-.98 11.781-3.696 16-9 .885-3.684.885-3.684 1-7l-3-1v-2c-4.337 0-5.944 2.08-9 5m10-4 1 2Zm50-42c-.538 12.417-2.495 24.554-4.437 36.813-3.895 21.483-3.895 21.483-5.563 43.187l6-1-1-4h2c.29 3.38.414 6.627 0 10-3.894 4.602-9.712 6.763-15.625 7.375-3.672-.408-5.504-1.078-8.375-3.375-5.074-7.698-2.158-22.238-1-31l.918-3.49c1.323-5.208 2.056-10.476 2.809-15.791l.462-3.194q.723-5.012 1.436-10.025l.984-6.828Q600.811 79.337 602 71c13.793-3.505 13.793-3.505 19-2"/><path fill="#fe6817" d="m507 101 .152 2.64q.289 4.946.593 9.89.128 2.123.25 4.245c.527 9.164 1.418 18.171 3.005 27.225 6.396-11.576 6.396-11.576 9.648-24.277L521 119l2-1c.36-3.56.445-7.103.559-10.68.441-3.32.441-3.32 1.66-5.246 2.385-1.438 4.072-1.44 6.843-1.386l2.66.011C537 101 537 101 539 103c1.324 15.941-8.669 34.267-17.937 46.438-5.828 6.828-9.836 10.687-19.063 11.437-2 .068-4 .119-6 .125-2.974-8.309-4.41-17.17-4-26l-3 1v-2h2l-.275-2.092q-.618-4.734-1.225-9.47l-.434-3.292c-.692-5.426-1.254-10.675-1.066-16.146 6.482-1.984 12.246-3.533 19-2"/><path fill="#fd6818" d="m979.875 102 3.125 2c-.468 4.776-1.243 8.045-4 12-2.551-.472-4.048-1.035-6.187-2.562-3.945-2.016-7.466-1.694-11.813-1.438-.376 2.853-.376 2.853 0 6 1.882 2.03 1.882 2.03 4.5 3.5l2.754 1.777L971 125c9.112 6.1 9.112 6.1 11 12 .975 6.498-.657 10.334-4.227 15.797-2.664 3.31-4.844 4.549-8.773 6.203l-3.062 1.313c-9.103 1.589-21.003.925-28.938-4.313-1.133-2.889-1.255-4.333-.145-7.238l1.332-2.075 1.293-2.113L941 143c4.751 0 5.505 1.042 9 4 3.015 1.005 5.042 1.103 8.188 1.063l2.73-.028L963 148v-4l-2 1-.207-2.32c-.543-2.815-.543-2.815-2.867-4.235l-2.614-1.32c-5.726-3.175-10.197-6.78-12.312-13.125-.507-4.83-.554-8.799 1.5-13.25 8.938-9.832 22.629-15.169 35.375-8.75"/><path fill="#fe6818" d="M426 101c1.586 2.289 2.01 3.607 1.934 6.402-.817 4.173-1.663 7.18-3.997 10.785-3.333 2.057-3.749 1.89-7.375 1.188-3.336-.596-3.336-.596-6.335.71-7.96 8.607-8.934 20.252-10.1 31.386l-.318 2.81-.257 2.533c-.642 2.542-1.562 3.532-3.552 5.186v-2h-16c-.135-6.807.364-13.34 1.207-20.09l.382-3.108q.4-3.227.81-6.452c.415-3.3.81-6.603 1.205-9.907l.79-6.283.351-2.998.364-2.763.302-2.435C386 104 386 104 389 102c2.305-.668 2.305-.668 4.875-1.187 1.265-.27 1.265-.27 2.555-.543 2.762-.29 4.89.053 7.57.73v10l1.504-1.863c5.97-7.104 10.802-12.509 20.496-8.137m-23 11 1 2Z"/><path fill="#fe6717" d="M943 101c1.87 3.739.141 8.14-1 12-2.203 3.482-3.096 4.699-7 6-3.187-.937-3.187-.937-6-2l-1 4h-2c-7.723 11.573-8.923 24.425-10 38-2.75.917-4.36 1.109-7.187 1.063L905 160l-1 2v-2l-2.937.063C898 160 898 160 897 159c.147-12.341 2.063-24.707 3.563-36.937l.708-5.866q.86-7.1 1.729-14.197c4.367-.652 8.52-1.117 12.938-1.062l2.902.027L921 101v10l2.438-3.75c5.15-6.826 11.545-9.924 19.562-6.25m-24 11 1 2Z"/><path fill="#fdf3ea" d="M249 68q2.005 1.495 4 3c3.444-.09 5.03-1.02 7.875-3 3.487-2.232 6.04-2.673 10.125-3-.6 3.587-.893 3.92-4.027 6.297a315 315 0 0 1-3.91 2.453q-2.064 1.328-4.122 2.664L256.9 77.74C249.782 82.465 242.975 87.982 238 95v2l3.375-1.625c4.67-2.096 9.443-3.638 14.313-5.187 8.24-2.645 15.7-6.076 23.312-10.188l2-1c2.9 2.395 3.502 4.312 4 8-3.62 1.316-6.096 2-10 2l.48 1.664c1.088 4.89 1.663 10.715-.375 15.387C274 107.687 274 107.687 272 110c-3.786-.216-4.92-.918-7.625-3.687C261.851 103.008 259 99.275 259 95c-9.059 2.796-15.823 5.664-23 12-3.137 2.694-3.617 3-8 3l-.297-2.703-.453-3.547-.422-3.516c-.93-3.63-1.924-4.936-4.828-7.234-2.632-1.254-2.632-1.254-5-2l1-3c7.765.937 7.765.937 10.91 1.777 4.19.302 5.655-1.084 8.903-3.652l2.894-2.242c1.694-1.389 1.694-1.389 3.293-2.883l-8-3v-2l-2.137-.277c-3.418-.863-5.742-2.342-8.675-4.285l-2.958-1.942L220 68c2-3 2-3 3.813-3.668C232.806 62.967 240.694 64.31 249 68"/><path fill="#fa691c" d="M603 182h7q.037 6.968.055 13.934.008 2.37.02 4.74.018 3.408.023 6.814l.015 2.14c0 3.075-.133 5.431-1.113 8.372l-5-2v-2l-3.062 1.688c-2.257.979-3.488 1.394-5.926.949-1.887-.762-1.887-.762-5.012-2.637l-1-3h-2l-1 5h-7l-1.062-3.437c-.732-1.956-.732-1.956-1.938-3.563-3.589-1.062-3.589-1.062-7-1v2l-5-1-3 9-6-2c.589-4.32 1.643-8.021 3.285-12.055l1.358-3.36 1.42-3.46 1.431-3.531q1.745-4.3 3.506-8.594h7c6.1 11.682 6.1 11.682 7.25 16.188L581 204l2 1v4c2.647-2.288 3.503-4.078 4.375-7.437.984-3.1 1.653-4.596 3.813-7.125 3.857-1.972 6.514-1.73 10.812-1.438zm-33 10c-2.29 4.812-2.29 4.812-3 10h7l-3-10zm24 9c-.342 4.652-.342 4.652 1 9 2.38.843 2.38.843 5 1l3-2c.4-1.907.4-1.907.25-4-.015-.701-.03-1.403-.047-2.125-.103-1.964-.103-1.964-1.203-3.875-4.493-.425-4.493-.425-8 2m-10 9 1 3v-3z"/><path fill="#f9893f" d="M431.063 185.938 434 186v7h5l2 5-1 1h-6v12h6v5c-1.437.054-2.875.093-4.312.125l-2.426.07C431 216 431 216 428 214a70 70 0 0 1-1.187-7.625l-.249-2.14c-.2-1.744-.383-3.49-.564-5.235l-10 2-.184 3.027-.253 3.91-.247 3.903C415 215 415 215 414 216h-7l1-23h19l-.062-2.937c.082-4.043.082-4.043 4.125-4.125"/><path fill="#fc6818" d="m356 185 3 2-1 7-1.703-.992c-2.566-1.126-4.265-1.215-7.047-1.133l-2.422.055L345 192l1 3c2.193 1.102 2.193 1.102 4.813 1.938 4.68 1.758 7.759 3.301 10.125 7.875.103 3.622-.658 6.414-2.938 9.187-4.629 2.558-9.262 3.501-14.437 2.313C340 215 340 215 337 213l1-7 1.875 1.438c4.286 2.143 8.391 2.295 13.125 2.562v-5l-2.012-.48c-5.569-1.472-9.431-2.701-12.988-7.52-1.283-3.208-1.236-4.418.063-7.625 4.944-6.06 10.785-6.012 17.937-4.375"/><path fill="#fa792c" d="m384 192 1 2 3-1c3.063-.402 5.945-.5 9 0 2.938 2.438 2.938 2.438 5 5l2 1-.254 1.898-.308 2.477-.317 2.46c-.303 2.214-.303 2.214.879 4.165.125 2.563.125 2.563 0 5-1 1-1 1-3.875 1.063L397 216c-2.923-.142-2.923-.142-5.312.688-3.828.445-5.596-.44-8.688-2.688-1.027-3.53-1.416-5.815-.187-9.312C384 203 384 203 386 201h-2c-.845-3.378-1.108-5.675 0-9m8 6-3 2h6zm3 2 1 2Zm-6 1 4 1Zm6 5-6 2v3c2.416.167 2.416.167 5 0l2-2z"/><path fill="#fb6417" d="m640 193 2 1 2-1c7.09-.581 7.09-.581 10.938 1.875 2.832 2.918 3.053 3.584 3.125 7.75L658 206c-3 1-3 1-6 0v2l2.438.813L657 210l1 3c-3.447 3.17-6.353 3.842-11 4-3.842-1.153-6.226-2.152-8.937-5.125-2.006-5.428-1.83-10.614.437-15.937zm5 6-1 3c2.416.25 2.416.25 5 0l2-3zm-1 8 2 4h7l1-2-3-1v-2c-2.428 0-4.63.5-7 1"/><path fill="#fa6a1d" d="M765 193c3.443 2.124 4.716 3.149 6 7v7h-14v3c4.516.077 8.59.102 13-1 .188 2.375.188 2.375 0 5-4.441 2.961-8.788 2.654-14 2-3.187-2-3.187-2-5-4l-2 1-1-3 1-1c.158-1.413.276-2.831.375-4.25.407-3.942 1.055-6.609 3.625-9.75 3.458-2.69 7.802-2.691 12-2m-7.75 6.438c-1.354 1.359-1.354 1.359-1.25 2.562h5l2-4c-3.862-.423-3.862-.423-5.75 1.438"/><path fill="#fc6a1b" d="M492 193c3.833 1.448 4.813 2.675 6.875 6.25 1.273 4.245 1.381 6.51.125 10.75-2.509 3.32-4.525 4.785-8.312 6.5-4.632.628-7.787.13-11.688-2.5-2.835-4.382-3.525-8.087-2.652-13.137 2.56-7.313 8.816-8.56 15.652-7.863m-5 5c-3.118.646-3.118.646-4 3-.305 4.653-.305 4.653 1 9 4.024 1.19 4.024 1.19 7.875 0 1.678-2.983 1.315-5.65 1.125-9-1.925-1.15-1.925-1.15-4-1z"/><path fill="#fa6f23" d="m711 192 2 1c.298 3.406.416 6.77.479 10.186.072 1.944.288 3.882.521 5.814l3 2 1-2 2 1 .113-3.43.2-4.445.068-2.262c.097-1.963.35-3.916.619-5.863l3-2 5 2-1 21-4 1v2l-2-1v-3l-3 2c-6.972.664-6.972.664-10.238-1.445-2.639-3.826-2.196-7.277-2.012-11.805l.055-2.547c.047-2.068.118-4.136.195-6.203 1.875-1.062 1.875-1.062 4-2"/><path fill="#fb7428" d="m663 191 2.75 1c5.312 1.555 10.77 1.162 16.25 1 1.293 4.544 1.184 8.932 1.188 13.625l.037 2.64.005 2.524.013 2.303C683 216 683 216 681 218h-4l-1-18-3 2v-3l-3 2c-.55 3.314-.55 3.314-.625 7.063-.292 6.854-.292 6.854-1.375 7.937-1.666.04-3.334.043-5 0-.197-3.604-.38-7.208-.562-10.812l-.17-3.104-.147-2.979-.143-2.745C662 194 662 194 663 191"/><path fill="#fc7123" d="m478 184 1 3c-1.328 2.305-1.328 2.305-3.25 4.875q-1.89 2.553-3.75 5.125l-1.723 2.363c-1.676 3.461-1.572 6.125-1.464 9.95l.082 3.8L469 216h-4v2c-2-1-2-1-4-3 0-1.912.005-3.826.125-5.734-.323-5.857-3.313-10.618-6.25-15.516C451 187.26 451 187.26 451 185c3.125-.625 3.125-.625 7 0 1.932 2.447 3.316 4.944 4.738 7.715 1.053 2.417 1.053 2.417 3.262 3.285l.75-2.125c1.457-3.352 2.93-6.039 5.25-8.875 3.25-.875 3.25-.875 6-1"/><path fill="#fdf6ee" d="M173.2 142.895q2.802 1.056 5.558 2.23c3.215 1.255 4.98.962 8.242-.125 5.388-.441 9.944-.074 15 2v2l-2.633.734c-9.239 2.687-14.705 5.212-21.367 12.266l-1.031-2.266c-2.769-5.625-4.825-9.728-10.801-12.097A103 103 0 0 0 155 145v-2c5.187-2.594 12.792-1.617 18.2-.105"/><path fill="#fb7528" d="m520 192 5 2-1 22h-5v-2l-4 4q-2.19-.676-4.375-1.375l-2.46-.773C506 215 506 215 504 213c-1.335-6.54-1.842-13.525 0-20h6c1.067 3.462 1.102 6.64 1.063 10.25l-.028 3.266L511 209c2.076.553 3.844 1 6 1l-1-4h2l-.07-2.555-.055-3.32-.07-3.305C518 194 518 194 520 192"/><path fill="#fb6e20" d="M694.125 185.875 697 186v7h5l.375 1.938L703 197l2 1c-2 1-2 1-8 1l1 12 4-1a88 88 0 0 1 1 5c-1.876 1.876-4.498 1.18-6.992 1.23C694 216 694 216 691 214c-1.095-3.285-1.1-5.737-1.062-9.187l.027-3.293L690 199h-4l-1-4 5-2-.625-2.375L689 188c2-2 2-2 5.125-2.125"/><path fill="#fc6d20" d="M367 186h6v7h6v6l-6 1 1 10 3 1 1-2c1 1 1 1 1.063 4.063L379 216c-1.415.109-2.832.186-4.25.25l-2.39.14c-2.36-.39-2.36-.39-4.641-1.984-2.29-3.207-2.125-5.257-1.969-9.156l.11-3.547L366 199l-4-1 1-5h2z"/><path fill="#fdf6ef" d="m226 120.875 2.625-.008C231 121 231 121 234 122l-1 3c-1.785.59-1.785.59-4.062.938-8.032 1.57-13.117 4.433-17.938 11.062-1.635-1.635-3.226-3.258-4.75-5-5.674-5.043-11.951-5.574-19.25-6l2-4c12.434-.519 12.434-.519 17.875 1.688 2.994 1.184 2.994 1.184 6.125.878 2.125-.888 2.125-.888 5-2.566 2.948-.983 4.927-1.134 8-1.125"/><path fill="#fb6f21" d="M613 193h6l5 12c1.752-2.629 2.407-4.195 3.25-7.125.754-2.133.754-2.133 1.75-3.875 3.188-1 3.188-1 6-1 1 2 1 2 .363 4.25l-1.05 2.75-1.122 2.957A1000 1000 0 0 1 628 216h-7a1629 1629 0 0 1-4-9.25l-1.156-2.645-1.094-2.558-1.016-2.349C613 197 613 197 613 193"/><path fill="#fd7222" d="m224 227-1 1.875c-1.142 2.035-1.142 2.035-1 4.125-21.176 6.646-21.176 6.646-27.305 4.008L193 236l1-5-33-1 1-2 3.71.048c4.612.055 9.225.089 13.838.117q2.975.022 5.949.061c10.898.14 21.035.005 31.62-2.772 3.148-.496 4.286-.212 6.883 1.546"/><path fill="#fa7427" d="M429 187h4v7h7c.563 1.938.563 1.938 1 4l-1 1h-6v12h6v5c-1.437.054-2.875.093-4.312.125l-2.426.07C431 216 431 216 428 214c-1.311-3.327-1.1-6.715-1.062-10.25l.027-3.266L427 198h-2v-3l4 1 1-4h-1z"/><path fill="#fa6e24" d="M736.563 192.938 739 193l1 2 2-2c2.688-.27 5.291-.087 8 0l-1 9-5-1 3-2-6 1-.184 3.246-.254 4.191-.119 2.143c-.33 5.307-.33 5.307-1.443 6.42-2.5.125-2.5.125-5 0-1.622-1.622-1.13-3.42-1.133-5.656l-.004-2.848.012-2.996-.012-2.996.004-2.848.004-2.63c.196-3.072.592-3.013 3.692-3.089"/><path fill="#fc7225" d="M533.563 192.938 536 193v2l1.688-1c2.615-1.131 4.493-1.157 7.312-1v6l-7 2-1 15h-6c-1.622-1.622-1.13-3.42-1.133-5.656l-.004-2.848.012-2.996-.012-2.996.004-2.848.004-2.63c.196-3.072.592-3.013 3.692-3.089"/><path fill="#fd5e10" d="M604 183h4v15c-4.75 1.9-7.08 2-12 2-2.036 1.825-2.036 1.825-2.937 3.875-1.133 2.265-2.502 4.138-4.063 6.125-1.726-1.726-1.253-3.962-1.312-6.312.053-3.46.104-5.3 1.75-8.375 3.784-1.939 7.387-1.805 11.562-1.313l2 1z"/><path fill="#fd6c1d" d="m478 184 1 3c-1.328 2.305-1.328 2.305-3.25 4.875q-1.89 2.553-3.75 5.125l-1.723 2.363c-1.676 3.461-1.572 6.125-1.464 9.95l.082 3.8L469 216h-4v2c-2-1-2-1-4-3-.033-1.963-.058-3.928-.004-5.89.005-2.775-.453-5.396-.996-8.11h2l2 4h1v9l2 1v-1.697c0-22.54 0-22.54 5-28.303 3.313-1 3.313-1 6-1"/><path fill="#fa6d20" d="m686 194 1 4h4l1 10c1.952-3.904 2.506-6.722 3-11l7 1 1-4v3l2 1c-2 1-2 1-8 1l1 12 4-1a88 88 0 0 1 1 5c-1.876 1.876-4.498 1.18-6.992 1.23C694 216 694 216 691 214c-1.095-3.285-1.1-5.737-1.062-9.187l.027-3.293L690 199h-4c-.562-1.937-.562-1.937-1-4z"/><path fill="#fb7c30" d="M603 182h7v33h-1l-1-10-2 3-3 1-1-10h3l.148-2.992.227-3.883c.07-1.276.14-2.552.21-3.867C606 185 606 185 608 183h-4v13l-10-2v-1h8z"/><path fill="#fb772a" d="m384 192 1 2 3-1c4.193-.402 7.799-.645 11.563 1.375C401 196 401 196 401 198h-4v5c-1.416.054-2.833.093-4.25.125l-2.39.07c-2.613-.216-4.169-.77-6.36-2.195-1.135-3.319-1.103-5.69 0-9m8 6-3 2h6zm3 2 1 2Zm-6 1 4 1Z"/><path fill="#fc7021" d="M566 185h7v1h-6l3 2c-.907 4.687-1.955 9.342-3 14l6-1-2-7 2-1 2 10-13 1v-2h-2a366 366 0 0 1 6-17"/><path fill="#fd6a1f" d="M507 101v14h-1l-1-6h-1v-6c-1.98.28-3.96.575-5.937.875l-3.34.492L492 105c-1.437 2.874-.589 5.249-.191 8.336.33 4.593-.255 9.105-.809 13.664h-1q-.507-4.03-1-8.062c-.095-.753-.19-1.505-.29-2.28-.556-4.592-.808-9.032-.71-13.658 6.602-2.02 12.074-3.385 19-2"/><path fill="#fe5d0c" d="m344.16 185.902 3.902.036 3.91.027L355 186l-2 1v2l-1.934.332-2.503.48-2.497.458L344 191l-1 3 1 2-1 3 5 1v1c-3.312.25-3.312.25-7 0-2.22-1.998-2.873-3.647-3.875-6.437-.164-3.356.939-4.882 2.875-7.563 1-1 1-1 4.16-1.098"/><path fill="#fd6b1d" d="M855 116c-.868 9.179-.868 9.179-1.562 13.5-.565 4.515-.52 8.957-.438 13.5l4-1 1 3 2-2h3c-1.39 3.358-2.825 5.186-6 7-2.625.375-2.625.375-5 0-2.558-3.837-2.302-6.992-2.25-11.437l.016-2.43c.102-6.414.364-12.957 2.234-19.133 2-1 2-1 3-1"/><path fill="#fa7a2d" d="m738 193 2 2 2-2c2.688-.27 5.291-.087 8 0l-1 9-5-1 3-2-6 1-1 15h-1l-1-13-1 6h-1c-.218-5.439-.104-9.87 2-15"/><path fill="#fc5c0d" d="M409 194h4c1.112 4.438 1.115 8.77 1.063 13.313l-.014 2.244q-.02 2.721-.049 5.443h-5z"/><path fill="#fe5d0c" d="M429 187h4v7h6v4l-6 1-.25 3.375L432 206l-4 2v-10h-3v-3l4 1 1-4h-1z"/><path fill="#fe450a" d="M123 84c5.65.601 10.662 2.075 16 4v2l-2 1 1.32 1.18c8.132 7.638 14.156 17.317 14.856 28.672.01 2.392-.039 4.76-.176 7.148h-1l-.41-2.79c-2.1-12.347-5.938-25.497-16.59-33.21a200 200 0 0 0-9.621-5.617L123 85z"/><path fill="#fc7025" d="M5 116h1c1.259 7.551 1.259 7.551-1 12-.281 2.303-.281 2.303-.187 4.875l.046 3.16c.112 3.135.25 6.265.407 9.399l.145 2.928q.15 2.904.32 5.807c.274 5.125.21 9.782-.731 14.831H4c-1.994-18.04-2.893-35.111 1-53"/><path fill="#fb7024" d="m477 199 2 4 2-1-1 6h2v-6h1l1 8 6 1v1h-5l1 1v1l6 1c-3 2-3 2-4.937 1.863-7.081-1.89-7.081-1.89-9.063-4.863-2.603-4.555-1.844-8.02-1-13"/><path fill="#fd5e0e" d="M397 198h4l1 17h-4l-1-3-2-1 3-1-2-4h-11l2-3c2.383-.293 2.383-.293 5.125-.187l2.758.082L397 203z"/><path fill="#fa7429" d="m559 203 1 3 17 1-1 2-7-1v2l-5-1-3 9-6-2c.591-4.847 1.98-8.607 4-13"/><path fill="#fc6418" d="m520 192 5 2-2 21h-3v-2h2c-.342-2.97-.342-2.97-1-6l-2-1q-.04-3.22-.062-6.437l-.036-3.622C519 193 519 193 520 192"/><path fill="#fe5c0c" d="M604 183h4v15l-5 2-2-1v-2l-8-1 1-2c6.75-.125 6.75-.125 9 1z"/><path fill="#fa7b2e" d="M785 72v2l2-1c2.672-.134 5.323-.043 8 0l1-2v8l-1-4-2 1a242 242 0 0 1-8.945-.121l-2.682-.072q-4.249-.116-8.498-.245l-5.754-.158A6684 6684 0 0 1 753 75v-1l24-1v-1c3.287-.8 4.71-1.097 8 0"/><path fill="#fc7a2e" d="m177 238-1 2h-15l-1 2v-3h-34v-1q7.52-.255 15.04-.482 2.547-.08 5.096-.166c10.378-.352 20.513-.37 30.864.648"/><path fill="#fe580b" d="M467 195c1.198 4.147.89 7.994.563 12.25l-.159 2.258q-.195 2.746-.404 5.492l-4-1h2l-.375-3.937c-.07-.731-.14-1.462-.21-2.215L464 206l-2-1v-4h-2v-4z"/><path fill="#fc7d2f" d="m351 184.25 2.625.266C356 185 356 185 359 187l-1 7-1.672-.992c-2.716-1.176-4.634-1.21-7.578-1.133l-2.703.055L344 192v-2c2.957-1.478 5.742-1.06 9-1v-2l-10-1c3.385-2.257 4.126-2.188 8-1.75"/><path fill="#fd6314" d="m491 194-2.312 1.75c-4.537 3.798-6.014 6.321-6.688 12.25h-2l-.437-1.937c-.373-2.038-.373-2.038-1.563-3.063-.571-5.255-.571-5.255 1.438-7.875 3.813-1.674 7.458-1.362 11.562-1.125"/><path fill="#fc6618" d="M707 194h5v12l-2-4v11l-3-1z"/><path fill="#fb5e11" d="M766 196c2 .25 2 .25 4 1 1.158 3.473 1.069 6.36 1 10l-3-1a189 189 0 0 0-6.187-.562l-3.293-.254L756 205l1-2h9l-.562-2.937L765 197z"/><path fill="#fc5d0f" d="M605 202c1.984 1.176 1.984 1.176 4 3 .39 2.48.39 2.48.25 5.188l-.11 2.73L609 215h-4v-2h-9l4-1v-2l1.938-.625c2.411-1.27 2.411-1.27 2.812-4.5z"/><path fill="#fd560b" d="M682 198v17h-4v-16c3-1 3-1 4-1"/><path fill="#f97f35" d="m401 198 3 1-.254 1.898-.308 2.477-.317 2.46c-.303 2.214-.303 2.214.879 4.165.125 2.563.125 2.563 0 5-1 1-1 1-3.875 1.125C397 216 397 216 394 215v-3h-5c3-2 3-2 6-3l2-3c.857 3.32 1 5.495 1 9h4l-1-3c-.07-2.395-.084-4.792-.062-7.187l.027-3.856z"/><path fill="#fa782d" d="M460 201h2l2 4h1v9l2 1v-12h1l1 13h-4v2c-2-1-2-1-4-3-.033-1.963-.058-3.928-.004-5.89.005-2.775-.453-5.396-.996-8.11"/><path fill="#fc7a2e" d="M475 133h1l1 12 5 1v-2h2l.375 1.938L485 148l2 1-4 6-2-2v-3l-6-2z"/><path fill="#fd5616" d="M121 100c4.171 1.867 5.84 3.91 8 8 .25 3.875.25 3.875 0 7-2-3-2-3-2-7h-2l-1 7c-2.77-2.77-2.398-4.765-2.625-8.625l-.227-3.602z"/><path fill="#fe5f10" d="M131 228h29l1 2c-9.65 2.663-20.249.254-30-1z"/><path fill="#fa782b" d="m653 194 4 3-1 3-3-1v4h-11l2-5c2.164-.926 2.164-.926 4.625-1.312l2.477-.426L653 196zm-8 5-1 3c2.416.25 2.416.25 5 0l2-3z"/><path fill="#fe400a" d="M251 81c0 3 0 3-1.715 4.754l-2.222 1.808c-2.99 2.35-2.99 2.35-5.063 5.438l2.082-.691 2.73-.871 2.708-.88C252 90 252 90 255 91l-3.437 1.25c-4 1.483-7.837 3.23-11.68 5.078L238 98l-2-1c3.821-6.369 8.803-11.868 15-16"/><path fill="#fa7e31" d="M757 193c7.508-.37 7.508-.37 10 1.5l1 1.5-2 1v6h-11l1-6 7-1v-1l-6-1zm.25 6.438c-1.354 1.359-1.354 1.359-1.25 2.562h5l2-4c-3.862-.423-3.862-.423-5.75 1.438"/><path fill="#fe590b" d="M505 194h4v14h-2l-2 4z"/><path fill="#fc742b" d="M295 178h1v7c-3.155 1.052-4.575.956-7.812.563-6.735-.705-13.424-.652-20.188-.563v-1q4.218-.509 8.438-1l2.373-.29c5.433-.625 10.72-.798 16.189-.71z"/><path fill="#fd400c" d="M76 72c6.433-.12 12.618.176 19 1v2l-26 2c2.923-1.461 4.925-2.341 8-3z"/><path fill="#f9833a" d="m702 194 1 3 2 1c-2 1-2 1-8 1l1 12 4-1a88 88 0 0 1 1 5c-1 1-1 1-2.848 1.098L694 216c3-2 3-2 6-2v-2l-4-1v-13h6z"/><path fill="#fc7629" d="m640 193 2 1 2-1c2.672-.134 5.323-.043 8 0v1l-3.75.5c-2.8.665-3.935 1.076-5.672 3.414-.977 2.003-1.836 3.986-2.578 6.086h-1l-1 5h-1c-.38-6.199.165-10.448 3-16"/><path fill="#fae0cc" d="M280 79c3 1 3 1 4.188 2.875C285 84 285 84 285 87c-4.054 1.158-6.218.837-10-1 1.25-3.653 1.671-4.78 5-7"/><path fill="#fc6f23" d="M621 69q-.214 3.345-.437 6.688l-.247 3.761c-.26 2.933-.664 5.685-1.316 8.551h-1c-.904-6.326-.904-11.674 0-18h-8v-1c4.02-.696 7.083-1.17 11 0"/><path fill="#fd7123" d="m126 238-1 2h-4l-1 2v-2l-2.012.438c-.883.185-1.766.37-2.675.562l-2.637.563c-2.613.427-5.034.513-7.676.437 1.315-2.63 2.272-2.923 5-4 5.557-1.199 10.448-.818 16 0"/><path fill="#fb7c2f" d="M484 193c5.394-.274 8.52-.36 13 3l-3 2-2 3c-2.625.688-2.625.688-5 1v-3l-2-1 4-3-5-1z"/><path fill="#fa8033" d="M431.063 185.938 434 186v7h5v1h-6v-7h-4l2 3c.313 2.563.313 2.563 0 5l-3 2v-2h-3v-2h2l-.062-2.937c.082-4.043.082-4.043 4.125-4.125"/><path fill="#fe5b0b" d="M505 105h1c1.267 9.66 1.09 19.277 1 29h-1q-.509-4-1-8c-.095-.744-.19-1.488-.29-2.254-1.593-13.096-1.593-13.096.29-18.746"/><path fill="#fd6315" d="m387 207 .688 1.938c1.165 2.334 1.165 2.334 3.937 2.812L394 212v4c-3.287.8-4.71 1.097-8 0-.625-3.375-.625-3.375-1-7z"/><path fill="#fd480a" d="M105 89h1l1 20c-2.003-3.004-2.493-4.71-3.125-8.187l-.508-2.731L103 96l-4 5c.633-3.191 1.756-5.512 3.5-8.25l1.344-2.14z"/><path fill="#fd7c36" d="m36.86 163.707 3.378.03 3.512.076 3.559.04q4.346.054 8.691.147v3H27c4.233-3.175 4.906-3.369 9.86-3.293"/><path fill="#fd7123" d="M345 148h1l1 9 15 1c-4.153 2.076-6.09 2.27-10.625 2.25l-3.477.016C345 160 345 160 343 158c.242-2.383.242-2.383.875-5.125l.617-2.758z"/><path fill="#fd7325" d="M610 139h1v10l6-1-1-4h2v8c-3.167 1.056-3.964.98-7 0l-2-1a560 560 0 0 1-.062-4.312l-.036-2.426C609 142 609 142 610 139"/><path fill="#fc6f22" d="m941 110 1 3c-2.153 3.23-3.27 4.757-7 6-3.187-.937-3.187-.937-6-2l-1 4-1-6 3.25.125c3.497-.117 4.873-.378 7.75-2.125l3-1z"/><path fill="#fd7122" d="m555 126 4 1v1l4 2v3l5 1v1l-11-1v-3l-2-1z"/><path fill="#fa691d" d="M560 207h1v11l-6-2 1-6 4-1z"/><path fill="#fc7125" d="m872 103 2 1c.08 2.605.14 5.207.188 7.813l.076 2.236c.074 5.5.074 5.5-1.776 7.963L871 123c-.98-2.939-1.038-4.058-.66-7.012l.283-2.295.314-2.38.303-2.417c.247-1.966.503-3.931.76-5.896"/><path fill="#fe430d" d="m236 78 9 2c-3.42 5.057-7.91 7.835-13 11l-4-2 3.25-1.25c3.273-1.387 5.405-3.03 7.75-5.75z"/><path fill="#fe4106" d="M113 50c2.686 2.686 3.06 5.376 4 9l4-4 2 1-2.875 2.625c-2.897 2.87-4.168 5.356-5.125 9.375h-1z"/><path fill="#fb6316" d="M353 211v5c-3.982 1.054-6.982.841-11 0v-2q1.903-.758 3.813-1.5l2.144-.844C350 211 350 211 353 211"/><path fill="#fc6e21" d="M829 120h1c.214 5.872-.113 11.386-2 17l-2 2a88 88 0 0 1-1-5l1-1c.284-2.515.448-5.03.621-7.555C827 123 827 123 829 120"/><path fill="#fb6116" d="M645 212h9v4c-6.625 1.125-6.625 1.125-10 0z"/><path fill="#fd7326" d="m112.75 172.375 2.984.898L118 174v2h7l-1 4-1-2c-2.093-.506-4.19-1-6.3-1.426-4.621-.983-9.153-2.3-13.7-3.574 3.638-2.408 5.684-1.883 9.75-.625"/><path fill="#fd7123" d="m426 156 6 1v2l3.625-1.062c3.752-.955 6.576-.888 10.375.062-2.713 2.713-4.812 2.69-8.54 3.04-4.023-.065-6.846-1.298-10.46-3.04z"/><path fill="#fa762d" d="M897 152c2 2 2 2 2 5l3-1 2 1v2h9v1h-8l-1 2v-2c-1.454.03-1.454.03-2.937.063C898 160 898 160 897 159q-.062-3.5 0-7"/><path fill="#fd792b" d="M457 110h5c1.556 10.83 1.556 10.83-1 15l-2 1c.095-.615.19-1.23.29-1.863.11-.809.22-1.617.335-2.45l.352-2.425c.238-2.55.238-2.55-1.977-5.262l2-2-2-1-1 2z"/><path fill="#fe5a0f" d="m454.188 100.938 3.855.027L461 101l1 2-19 2 1-3c3.56-1.187 6.438-1.097 10.188-1.062"/><path fill="#fd7a2c" d="m243 211-1 3-2.625-.125c-3.333-.064-3.333-.064-6.062 1.188-4.86 1.375-9.358.59-14.313-.063v-1q5.156-.754 10.313-1.5l2.958-.434 2.842-.41 2.619-.38C240 211 240 211 243 211"/><path fill="#fb580a" d="m560 202 2 .5c3.731.622 7.219.564 11 .5l-3 2 6 1v1a995 995 0 0 1-5.75.063l-3.234.035c-2.55-.083-4.595-.352-7.016-1.098z"/><path fill="#fe5e11" d="M572 155h3v2c-5.552 2.835-9.801 3.38-16 3v-2l2.59-.402 3.347-.536 3.34-.527c2.627-.253 2.627-.253 3.723-1.535"/><path fill="#fd792a" d="m488 103 2 1c.563 2.688.563 2.688 1 6l.625 2.688c.547 4.834-.068 9.495-.625 14.312h-1q-.507-4.03-1-8.062c-.095-.753-.19-1.505-.29-2.28-.556-4.592-.808-9.032-.71-13.658"/><path fill="#fc7327" d="M613 193h6l2 6-5-1-1 3c-1.765-3.088-2-4.233-2-8"/><path fill="#fb7223" d="M592 194c3.5.125 3.5.125 7 1 1.438 2.063 1.438 2.063 2 4l-6 1v-2l-7 2c1.152-2.468 2.048-4.048 4-6"/><path fill="#fe420c" d="m87 54 6 2 1-2 8 9-1 2-1.793-1.426C95.247 60.454 91.367 57.536 87 55z"/><path fill="#f99045" d="M366 187h1v8h-3v3h3v14h-1v-13l-4-1 1-5h2z"/><path fill="#fb6e21" d="m341 186 2 1-2 3c-.39 1.99-.732 3.99-1 6h2l1 5c-1.875-.562-1.875-.562-4-2-1.437-3.312-1.437-3.312-2-7 1.115-2.443 2.114-4.114 4-6"/><path fill="#fe5c0d" d="m554 126 1 4 4 1-2 2 6 1v1h-9l-1 4a888 888 0 0 1-.062-5.375l-.036-3.023C553 128 553 128 554 126"/><path fill="#fc7125" d="M776 121c1.417 4.25.193 6.719-1 11h-1l-1 11h-1c-.382-15.31-.382-15.31 2-21z"/><path fill="#fd7125" d="M766 102h1c-.503 7.027-1.042 14.02-2 21h-1a689 689 0 0 1-.562-5.687l-.317-3.2c-.114-2.927.17-5.284.879-8.113h2z"/><path fill="#fd6f23" d="M136 3c-3.126 2.777-4.974 3.336-9.125 3.125-3.578-.25-3.578-.25-6.875.875-2.125-.937-2.125-.937-4-2 6.783-1.42 13.067-2.227 20-2"/><path fill="#fc7729" d="M900 128h1v22l-3 1q.214-3.782.438-7.562l.119-2.135c.268-4.483.75-8.866 1.443-13.303"/><path fill="#fc6f24" d="M726 81h1v5l8 2c-3.265 1.884-6.281 2.493-10 3z"/><path fill="#fe701c" d="M222.5 225.875 224 227l-3 4c-3.821-.53-6.062-1.497-9-4 7.385-2.215 7.385-2.215 10.5-1.125"/><path fill="#fd7727" d="M168 209q3.345.466 6.688.938l3.761.527c2.876.433 5.707.931 8.551 1.535v1c-6.343.984-11.406 1.73-17-2zm0 2 2 1Z"/><path fill="#fb6f22" d="M870 155c2.259.502 4.292 1.12 6.438 2 2.52.984 4.9 1.544 7.562 2-3.754 2.503-6.584 2.773-11 2-2-1.875-2-1.875-3-4z"/><path fill="#fe5e10" d="M349 129h1q-.172 3.938-.375 7.875c-.03.746-.062 1.493-.094 2.262-.304 5.636-.304 5.636-2.531 7.863a573 573 0 0 1-.125-6.187l-.07-3.481c.19-3.25.801-5.419 2.195-8.332"/><path fill="#fe5c10" d="M749 97h1c.214 6.644-.488 12.532-2 19h-1a671 671 0 0 1-.125-6.687l-.07-3.762c.185-3.363.737-5.55 2.195-8.551"/><path fill="#fd7327" d="M197 10c5.54.568 10.037 2.629 15 5-1.887 1.047-1.887 1.047-4 2-1.812-.75-1.812-.75-4-2a256 256 0 0 0-7-2z"/><path fill="#fb7028" d="m71 253 4 2a466 466 0 0 1-3.375 2.5l-1.898 1.406C68 260 68 260 66 260c-3-3.462-3-3.462-3-6l8 1z"/><path fill="#fc580d" d="M738 201h1v14h-4q.462-3.22.938-6.437l.527-3.622C737 202 737 202 738 201"/><path fill="#fd6317" d="m636 194-3 7h-3v-7c2.49-1.245 3.41-.777 6 0"/><path fill="#fa7128" d="M973 128c3.777.944 4.955 1.94 7.313 5.125 2.118 4.04 2.002 7.382 1.687 11.875h-1l-1-10h-2v-2l-1.937-.812C974 131 974 131 973 128"/><path fill="#fc792c" d="M741 86h9c1.102 4.406 1.287 7.48 1 12l-3 3 1-14h-8z"/><path fill="#fe751f" d="M80 71a85 85 0 0 1 4 3q-3.186.541-6.375 1.063l-3.586.597C71 76 71 76 69 75v-2c3.778-1.406 6.957-2.532 11-2"/><path fill="#fe5509" d="m371 210 7 2v3h-9l-1-4 3 1z"/><path fill="#f9772d" d="m625 205 5 3-2 8h-7l1-2 5 1c-.348-1.975-.348-1.975-1-4l-2-1z"/><path fill="#fc7325" d="M838 111h1c.849 5.376 1.002 9.654 0 15l-3 1-1-6h2z"/><path fill="#fb7e32" d="M700 106q3.719-.04 7.438-.062l2.142-.026c1.807-.009 3.614.036 5.42.088l1 1c-.176 2.69-.618 5.329-1 8h-1v-5l-3-1 3-2h-14z"/><path fill="#fd7d32" d="M451 100c8.07-.105 15.987-.034 24 1v1q-3.218.29-6.437.563l-3.622.316L462 103l-1-1a104 104 0 0 0-5.062-.562l-2.786-.254L451 101z"/><path fill="#fb5b0d" d="M622 208h2v2l3 1v4h-5c-.934-3.01-1.044-3.867 0-7"/><path fill="#fd570b" d="M914 151h1v8h-11v-2h9z"/><path fill="#fe420c" d="M163 147c3.859.27 5.681.733 8.688 3.25 2.133 2.537 3.923 4.741 5.312 7.75-.43 2.152-.43 2.152-1 4l-.664-1.574c-2.957-6.504-6.394-9.465-12.336-13.426"/><path fill="#fd782a" d="M554 135h9l-2 1v2l-5-1 1 7-3-1c-1.338-3.234-.896-4.414 0-8"/><path fill="#fe7627" d="M403 101h1q.079 3.437.125 6.875l.07 3.867C404 115 404 115 402 117l-.437-2.25c-.505-2.663-.505-2.663-1.188-4.875C400 108 400 108 401 105h2z"/><path fill="#fd450b" d="M98 86c-3.14 3.743-5.223 4.415-10 5a88 88 0 0 0-5 2c3.699-4.315 9.238-8.92 15-7"/><path fill="#fe4f03" d="M793 83v3h-24v-1l1.697-.076q3.807-.176 7.615-.362l2.67-.119 2.569-.127 2.364-.11C788.408 83.96 790.487 83 793 83"/><path fill="#fc7427" d="M809 136c.687 2.49 1 4.379 1 7l-3 1c-1.209 2-1.209 2-2 4l-2-1v-3l-1-2h5z"/><path fill="#fb7429" d="M910 101h11l-1 11h-1l-1-9-8-1z"/><path fill="#fe5808" d="m603 72 2 1q-.467 3.094-.937 6.188l-.528 3.48A181 181 0 0 1 602 91h-1c-.25-6.65.26-12.57 2-19"/><path fill="#fbceab" d="M59.785 164.867c5.16.018 10.107.39 15.215 1.133v1q-3.937.33-7.875.625l-2.262.195c-1.95.14-3.908.168-5.863.18l-2-2c1-1 1-1 2.785-1.133"/><path fill="#fc6f23" d="M706 156h3v3c-2.68 1.753-3.869 2.013-7.125 1.688C699 160 699 160 697 159v-2l3.375.625L704 158z"/><path fill="#fcf0e3" d="M165 142v2c-3.85 2.567-5.586 1.833-10 1v-2c3.215-1.607 6.436-1.057 10-1"/><path fill="#fd792c" d="M507 118h1l1 21-3-1z"/><path fill="#fd782a" d="M745 117h1v19h-3l-1-6h2z"/><path fill="#fdeee5" d="M221 121q2.406-.04 4.813-.062l2.707-.036C231 121 231 121 234 122l-1 3c-4.084-.743-8.02-1.83-12-3z"/><path fill="#fb7f35" d="M518 194h1v12l3 1c-1.375 1.5-1.375 1.5-3 3h-2l-1-4h2z"/><path fill="#fe5a0c" d="m677 194 3 2-1 2-3.312-.062c-3.632-.123-3.632-.123-6.688 1.062.375-1.937.375-1.937 1-4 2.525-1.263 4.199-1.205 7-1"/><path fill="#fe5b0f" d="M438 132h1v10l3 1 1 5c-3.875-1.75-3.875-1.75-5-4-.07-2.04-.084-4.083-.062-6.125l.027-3.32z"/><path fill="#fd7223" d="M521 118h2c1.033 5.968 1.363 8.956-2 14l-2-1 .438-2.59c.185-1.105.37-2.21.562-3.347l.563-3.34c.463-2.428.463-2.428.437-3.723"/><path fill="#fe4a07" d="m273 64 2 1v3a75 75 0 0 1-6.5 4.188l-1.879 1.115A513 513 0 0 1 262 76l-1-2 2.117-1.426 2.758-1.886 2.742-1.864C271.2 67.051 271.2 67.051 273 64"/><path fill="#fdecdf" d="m89 32-5 7-3-3 1-3c2.463-1.231 4.28-1.072 7-1"/><path fill="#fb580b" d="m509 210 6 2v3h-7c0-3 0-3 1-5"/><path fill="#fc7123" d="M343 201c7.385-.37 7.385-.37 10.5 1.5l1.5 1.5-1 3-1-2c-2.344-.91-2.344-.91-5.062-1.625-.92-.26-1.839-.52-2.786-.79L343 202z"/><path fill="#fb6f25" d="M807 158c-4.722 3.778-9.26 3.301-15 3v-1q2.903-.795 5.813-1.562l3.269-.88C804 157 804 157 807 158"/><path fill="#feeedf" d="M187 145h9l-2 3v3c-2.375-.187-2.375-.187-5-1-1.312-2.562-1.312-2.562-2-5"/><path fill="#fa7a2e" d="m338 206 5 3-1 3-5 1z"/><path fill="#fd590a" d="M422 194v4l-7 1v-3c3-2 3-2 7-2"/><path fill="#fc6618" d="M452 188c2.375-.187 2.375-.187 5 0l2 3 3 2-1 2c-2.812-.125-2.812-.125-6-1-1.875-3.062-1.875-3.062-3-6"/><path fill="#fce7d4" d="M271 65c-.187 1.813-.187 1.813-1 4-2.562 1.75-2.562 1.75-5 3l-1-6c2.49-.687 4.379-1 7-1"/><path fill="#fceee5" d="M141 61h6v2h2v2h-10l3-2z"/><path fill="#f5873e" d="M587 201h1l1 10h-2l-1 2-2-2c0-3 0-3 2-5 .648-2.57.648-2.57 1-5"/><path fill="#fd6111" d="m618 197 3 2c-.875 3.875-.875 3.875-2 5h-3v-6z"/><path fill="#fd7b2e" d="M441 126c1.226 3.678.703 5.882.063 9.688l-.59 3.574L440 142h-1q-.292-2.625-.562-5.25l-.317-2.953c-.112-2.584-.042-4.393.879-6.797z"/><path fill="#fd7226" d="M256 46q1.723 1.432 3.438 2.875l1.933 1.617C263 52 263 52 264 54c-2.702-.365-4.584-.699-6.812-2.312C256 50 256 50 256 46"/><path fill="#fd5509" d="M484 211h8v4h-8z"/><path fill="#f9752a" d="M498 203h2c-.492 6.4-.492 6.4-3.062 9.438-.64.515-1.28 1.03-1.938 1.562v-5l2-1c.656-2.527.656-2.527 1-5"/><path fill="#f9762b" d="m265 199 1 2 2 1h-2l-.875 1.938C264 206 264 206 262 207v-3l-2-1z"/><path fill="#fd7426" d="m136 200 1 2c1.895.465 1.895.465 4.063.625L145 203c-2.917 1.984-4.124 1.988-7.75 1.625L134 204l-1-3z"/><path fill="#fc782b" d="m594 157 14 2c-2 2-2 2-5.312 2.313-3.826-.325-5.663-1.021-8.688-3.313z"/><path fill="#fe5509" d="M964 158c-3.928 2.619-7.434 2.29-12 2l-3-2c5.235-.756 9.773-1.206 15 0"/><path fill="#fc752a" d="M462 158c4.516-.077 8.59-.102 13 1-2 2-2 2-5.375 2.25-3.26-.225-4.931-.526-7.625-2.25z"/><path fill="#fe5a0c" d="M790 145c2 1.375 2 1.375 4 3v2h7v2c-6.344.488-6.344.488-9.437-1.812C790 148 790 148 790 145"/><path fill="#fd7a2c" d="M385 113h1l1 13-3 2c-.09-5.152.153-9.92 1-15"/><path fill="#fce6d6" d="M189 122h6l-2 4h-6z"/><path fill="#fc490b" d="M68 95v7l4 1h-6l-1-3-2-1c3.875-4 3.875-4 5-4"/><path fill="#fd7528" d="M172 4c2.145.05 2.145.05 4.813.313l2.644.238c2.53.447 4.325 1.182 6.543 2.449l-6 1V7l-3.375.125C173 7 173 7 171 5z"/><path fill="#fc7c33" d="M296 165h3l-1 14h-1z"/><path fill="#fd6f23" d="M552 158h7v2h6v1q-2.125.04-4.25.063l-2.39.035c-2.267-.094-4.189-.466-6.36-1.098z"/><path fill="#fe5e0f" d="M921 111h2c-.488 6.055-.488 6.055-1 8l-3 2q.212-2.22.438-4.437c.08-.824.162-1.648.246-2.497C920 112 920 112 921 111"/><path fill="#fa782c" d="M353 208c2 3 2 3 2 5l4-2-1 3-5 1v-4l-4-1h4z"/><path fill="#fc570b" d="M722 211c-1.062 2-1.062 2-3 4-3.687.25-3.687.25-7 0 2.6-3.011 6.06-5.97 10-4"/><path fill="#fe5c0d" d="m493 196 3 1v8l-2 1q-.543-1.935-1.062-3.875l-.598-2.18C492 198 492 198 493 196"/><path fill="#fd6212" d="M467 195c.93 2.606 1.15 3.642.063 6.25L466 203h-3c.313-2.875.313-2.875 1-6z"/><path fill="#fd5c0c" d="M710 195h2v11c-3.144-4.192-3.438-5.069-3-10z"/><path fill="#fc7426" d="m694 112 7 2v7l-3 1 1-7h-4z"/><path fill="#fd7a2b" d="m425 101 2 1c1.387 4.854.747 8.31-1 13l-2 1 .219-2.012.281-2.675.281-2.637c.21-2.573.256-5.096.219-7.676"/><path fill="#fcfbf5" d="m243 82 5 1-3 4-5-1z"/><path fill="#fcefe2" d="m239 65 10 3c-4 1-6.055.807-10 0z"/><path fill="#fc7428" d="m308 53 1 3c-3.268 5.634-3.268 5.634-6 7 .615-3.995 2.706-6.745 5-10"/><path fill="#fe5a12" d="m89 46 8 3-2 2h-4l-1 2z"/><path fill="#fd5308" d="M758 212h7l1 3h-9z"/><path fill="#fd5b0c" d="M745.563 193.938 748 194v4h-5l-1-3c1-1 1-1 3.563-1.062"/><path fill="#fe5308" d="m519 194 3 1 1 3h-3v8h-1z"/><path fill="#fd5808" d="M540 194h4v4l-6 1z"/><path fill="#fb6e23" d="m855 157-1 3-11 2v-2h6v-2c2.076-.553 3.844-1 6-1"/><path fill="#fc7227" d="m759 155 1 4c-6.4 1.23-6.4 1.23-9.437.063L749 158l3.875-.375c3.473-.315 3.473-.315 6.125-2.625"/><path fill="#fa7d33" d="M854 142h3v6h-5z"/><path fill="#fd7222" d="M402 126h3l-3 11h-1c-.125-7.625-.125-7.625 1-11"/><path fill="#fd7021" d="m613 124-1 12h-1l-1-11c2-1 2-1 3-1"/><path fill="#fd6f22" d="M841 102c2.729.033 5.297.564 8 1v1l-9 1v5h-1c-.125-2.875-.125-2.875 0-6z"/><path fill="#fc7629" d="M598 97h1c.25 1.58.474 3.164.688 4.75.19 1.323.19 1.323.386 2.672C600 107 600 107 597 111z"/><path fill="#fdecdd" d="M249 93v2l-2 1 1 3c-2.915-1.074-4.778-1.778-7-4 5.75-2 5.75-2 8-2"/><path fill="#fe4b09" d="M80 36h2c1.473 1.68 1.473 1.68 3.063 3.875l1.597 2.18C88 44 88 44 89 46c-3.676-1.021-4.934-1.914-7.312-5C80 38 80 38 80 36"/><path fill="#ff5606" d="M692 187h4l-1 6h-3a88 88 0 0 1-1-5z"/><path fill="#fc7125" d="m892 146 3 3-2 2c-3.625-.375-3.625-.375-7-1 1.952-1.952 3.532-2.848 6-4"/><path fill="#fb7b2f" d="M902 112h1l1 11h-2l-1 4z"/><path fill="#fd782b" d="m370 116-1 13h-1l-1-12c2-1 2-1 3-1"/><path fill="#fd7c2f" d="M524 104h1l1 12h-2l-1 2z"/><path fill="#fc792c" d="m648 92 3 2c.293 2.602.293 2.602.188 5.625l-.083 3.04L651 105c-2.59-2.59-2.374-4.027-2.625-7.625l-.227-3.04z"/><path fill="#fc792b" d="M769 89v13h-2l-1-12c2-1 2-1 3-1"/><path fill="#fd5a0c" d="M482 194h9c-3 3-3 3-6.187 3.188L482 197z"/><path fill="#fe5d11" d="M683 150v2c-2.303 2.217-3.525 2.968-6.75 3.188L674 155c6.129-5 6.129-5 9-5"/><path fill="#fd7023" d="M456 147c0 4.39-2.128 5.77-5 9l-1-3 4-2v-3z"/><path fill="#fd7c30" d="M477 120h1l-1 13h-1c-.222-1.79-.427-3.582-.625-5.375l-.352-3.023L475 122z"/><path fill="#fe6f22" d="M295 116c2.83 3.996 1.762 7.427 1 12h-1c-.762-4.316-1.16-7.744 0-12"/><path fill="#fcefe3" d="M135 116h1v6l-4-1-1-4 3 1z"/><path fill="#fc6f25" d="M8 105c1.537 2.44 2.02 3.707 1.813 6.625C9 114 9 114 6 116c.875-7.625.875-7.625 2-11"/><path fill="#fc4b18" d="M123 84c6.625.75 6.625.75 10 3l-3 2-7-4z"/><path fill="#fe570e" d="M120 6c-2.9 1.934-3.897 2.301-7.187 2.625L109 9c2.782-4.174 6.466-3.223 11-3"/><path fill="#fe7325" d="M199.375 204.875 201 206c-5.415 2.215-5.415 2.215-8.375 1.125L191 206c5.415-2.215 5.415-2.215 8.375-1.125"/><path fill="#fd7021" d="M182 202c3.375-.125 3.375-.125 7 0 2 2 2 2 2 4l-9-3z"/><path fill="#fe5507" d="M697 194h5v4l-6-2z"/><path fill="#fd7222" d="m251 186 2 2-8 1-1-3c3.01-.934 3.867-1.044 7 0"/><path fill="#fd792c" d="m255 184 11 1v1l-13 1z"/><path fill="#fc712b" d="m89 167 1 2c-3.375.125-3.375.125-7 0l-2-2c3.021-.971 5.005-1.136 8 0"/><path fill="#fd5d10" d="M580 147h2c-.875 4.75-.875 4.75-2 7l-4-1 3-1z"/><path fill="#fd7425" d="m656 145 12 2v1l-11 1z"/><path fill="#fe5b0c" d="m864 139 3 1 1 5-3 2z"/><path fill="#fd7228" d="M292 105c2.296 3.445 2.54 5.938 3 10-3-2-3-2-3.75-4.437C291 108 291 108 292 105"/><path fill="#fd752a" d="M101 11c-1.77 2.142-2.876 2.96-5.562 3.813L93 15l-2-2a328 328 0 0 1 3.875-1.562l2.18-.88C99 10 99 10 101 11"/><path fill="#fe7a2c" d="m72 216 11 1v1l-12 1z"/><path fill="#fa6417" d="m752 210 5 2v3l-5-2z"/><path fill="#fb5d0f" d="m591 207 3 1-1 6h-2c-1.044-3.133-.934-3.99 0-7"/><path fill="#fe590c" d="M629 202h1v6h-3l-1-3 3-1z"/><path fill="#fc590b" d="m575 196 3 1v2h-2l1 5-2-1c-.687-3-.687-3-1-6z"/><path fill="#fa863b" d="m3 156 1 4h2l-1 9H4z"/><path fill="#fd7323" d="M425 121c1.188 1.688 1.188 1.688 2 4-1.375 2.75-1.375 2.75-3 5-1.033-2.788-1.045-3.868-.062-6.75z"/><path fill="#fd7122" d="m585 111 4 2-1 6-1-2h-2z"/><path fill="#fcc29a" d="M64 168h10v2H64z"/><path fill="#fd7a2d" d="m661 144 7 1v1h-7z"/><path fill="#fd792c" d="m490 141 2 1v7h-1z"/><path fill="#ee7f3b" d="m733 216 4 2-2 2-2-1z"/><path fill="#f58138" d="M374 206h3v2l-3 1z"/><path fill="#f87c32" d="m569 198 3 1v2l-4-1z"/><path fill="#fdb587" d="M75 169h7v1h-7z"/><path fill="#fc782b" d="M704 133h1v5l-2-1z"/><path fill="#fa782d" d="m928 122 1 4-4-1h3z"/><path fill="#fd8339" d="M203 226h6v1h-6z"/><path fill="#f17e37" d="m758 208 4 1-3 1z"/><path fill="#fc7c2f" d="M400 150h1v6h-1z"/><path fill="#f27b32" d="m945 102 2 1-1 3z"/><path fill="#fb782c" d="M745 88h3c-1 2-1 2-3 3z"/><path fill="#f88137" d="m476 191 2 4h-2z"/><path fill="#fe7b2f" d="M738 151h1v5h-1z"/><path fill="#fe7a2d" d="M738 146h2l-1 3z"/><path fill="#fe7a2c" d="m568 145 3 1-4 1z"/><path fill="#ff7c2d" d="M379 144h1v5h-1z"/><path fill="#fd772a" d="M671 143h2v2l-3-1z"/><path fill="#fe7d32" d="M345 134h1v5h-1z"/><path fill="#fe7c2f" d="M489 128h1v5h-1z"/><path fill="#fb7a2e" d="M869 113h1v5h-1z"/><path fill="#fb7b2e" d="m779 104 3 1-1 2-2-1z"/><path fill="#f57d33" d="M670 70h5v1h-5z"/><path fill="#f67f34" d="m647 208 3 1h-3z"/><path fill="#f87d32" d="m491 201 1 4Z"/><path fill="#f67f38" d="M685 192v3Z"/><path fill="#f68036" d="m686 191 3 1h-3z"/><path fill="#f87f35" d="m585 190 3 1h-3z"/><path fill="#f9792e" d="m946 132 2 1h-3z"/><path fill="#f08b48" d="m55 252 2 2h-2z"/><path fill="#ef803b" d="M458 219h2l-1 2z"/><path fill="#f07f39" d="m411 217 3 1Z"/><path fill="#f17f3b" d="m369 216 2 2h-2z"/><path fill="#f77c33" d="m570 209 3 1Z"/><path fill="#f8833a" d="m391 208 3 1Z"/><path fill="#ff8031" d="m142 201 3 1Z"/><path fill="#f57f36" d="m685 200 1 2-2-1z"/><path fill="#f88338" d="m425 200 1 2-2-1z"/><path fill="#f7843c" d="M414 192h2l-1 2z"/><path fill="#f67f36" d="m707 191 2 1-2 1z"/><path fill="#fb8c44" d="m290 186 2 1-2 1z"/><path fill="#f68038" d="m574 184 2 2h-2z"/><path fill="#f48238" d="m568 182 2 2h-2z"/><path fill="#f68238" d="m572 182 1 2-2-1z"/><path fill="#fe8337" d="m124 180 2 1-2 1z"/><path fill="#fa8b43"/><path fill="#fc7f33" d="m656 162 3 1Z"/><path fill="#fb7d32" d="m699 161 3 1Z"/><path fill="#fa7e33" d="m663 161 3 1Z"/><path fill="#f9772e"/><path fill="#fe7a2c"/><path fill="#fb7a2e" d="m889 145 2 1-2 1z"/><path fill="#fb792d"/><path fill="#fc853b"/><path fill="#fa772a" d="m656 124 1 2-2-1z"/><path fill="#f97c32"/><path fill="#fd7a2d" d="m659 121 1 2-2-1z"/><path fill="#fe7a2a" d="m568 120 2 1-2 1z"/><path fill="#fe7b2c" d="m457 118 2 1-2 1z"/><path fill="#fd782b"/><path fill="#fb7a2b"/><path fill="#fc792f"/><path fill="#fb7c31" d="m394 97 3 1Z"/><path fill="#fb7d30" d="m671 85 2 1-2 1z"/><path fill="#f3813c" d="m190 6 3 1Z"/><path fill="#fb843a" d="m106 243 2 1Z"/><path fill="#cd7e4c" d="m827 233 2 1Z"/><path fill="#fc8335" d="m183 225 2 1Z"/><path fill="#ff8135" d="m97 225 2 1Z"/><path fill="#ee7f3c" d="m731 219 2 1Z"/><path fill="#ee7e39"/><path fill="#ef7d38"/><path fill="#fe7f34" d="m119 218 2 1Z"/><path fill="#f17d38"/><path fill="#f27c36"/><path fill="#f37f37" d="m623 217 2 1Z"/><path fill="#f3813c" d="m535 217 2 1Z"/><path fill="#f28039" d="m528 217 2 1Z"/><path fill="#f48039" d="m520 217 2 1Z"/><path fill="#f07f39"/><path fill="#f4823d" d="m375 217 2 1Z"/><path fill="#ed7a36" d="m642 216 2 1Z"/><path fill="#f07e37"/><path fill="#f27e36" d="m750 213 2 1Z"/><path fill="#f67d35"/><path fill="#f57a33"/><path fill="#f67e35"/><path fill="#f47b33"/><path fill="#f57e37" d="m553 210 2 1Z"/><path fill="#fd8538"/><path fill="#f57f38" d="m702 208 2 1Z"/><path fill="#f77d32"/><path fill="#fe8539" d="m243 208 2 1Z"/><path fill="#f77b32"/><path fill="#f78139"/><path fill="#f67c34" d="m633 206 2 1Z"/><path fill="#f98039"/><path fill="#f6883c" d="m249 206 2 1Z"/><path fill="#f77c34" d="m584 204 2 1Z"/><path fill="#f87f36"/><path fill="#e08145" d="m827 201 2 1Z"/><path fill="#f68238"/><path fill="#f47f37"/><path fill="#f78138" d="m687 200 2 1Z"/><path fill="#f78037"/><path fill="#f78039" d="m374 200 2 1Z"/><path fill="#ff8133" d="m138 200 2 1Z"/><path fill="#f88137"/><path fill="#f78037"/><path fill="#f87f35" d="m585 195 2 1Z"/><path fill="#f6823a" d="m729 193 2 1Z"/><path fill="#f68036" d="m656 193 2 1Z"/><path fill="#f78037"/><path fill="#f88136"/><path fill="#f98137"/><path fill="#f88237"/><path fill="#f4823b"/><path fill="#fa7f35" d="m531 191 2 1Z"/><path fill="#f88239" d="m391 191 2 1Z"/><path fill="#f9893e"/><path fill="#f8833a" d="m691 184 2 1Z"/><path fill="#f8873d"/><path fill="#f88941"/><path fill="#fd8235" d="m126 181 2 1Z"/><path fill="#fe863d" d="m118 178 2 1Z"/><path fill="#fb9d5f" d="m86 170 2 1Z"/><path fill="#fbbc8f" d="m61 168 2 1Z"/><path fill="#f67d35" d="m877 162 2 1Z"/><path fill="#f77b32" d="m847 162 2 1Z"/><path fill="#fc7d33" d="m558 162 2 1Z"/><path fill="#f47d37" d="m951 161 2 1Z"/><path fill="#f77e35" d="m906 161 2 1Z"/><path fill="#fa7e34"/><path fill="#fa7f35" d="m755 161 2 1Z"/><path fill="#fa7e32"/><path fill="#f87d34" d="m758 160 2 1Z"/><path fill="#f97d32"/><path fill="#f67d32"/><path fill="#fe7a30"/><path fill="#fb7d31"/><path fill="#fb7b2f" d="m684 153 2 1Z"/><path fill="#fc7c30"/><path fill="#fc7b2d" d="m487 149 2 1Z"/><path fill="#fc7c30"/><path fill="#fa7e30" d="m612 147 2 1Z"/><path fill="#fc7a2f" d="m801 146 2 1Z"/><path fill="#ff7b2d"/><path fill="#fb853c"/><path fill="#f97d32"/><path fill="#fe7a2d"/><path fill="#fe7d30"/><path fill="#fe7a2b" d="m572 145 2 1Z"/><path fill="#fc7b2f"/><path fill="#fe7b2e"/><path fill="#fe7b2b" d="m569 143 2 1Z"/><path fill="#f7772e" d="m709 142 2 1Z"/><path fill="#fc7a2b" d="m675 142 2 1Z"/><path fill="#fc7f32"/><path fill="#fe7a2d" d="m446 142 2 1Z"/><path fill="#ff7d2d"/><path fill="#fe7b2f"/><path fill="#fc7a2e"/><path fill="#ff7a2b"/><path fill="#ff7b2f"/><path fill="#fe7829"/><path fill="#fc7d32"/><path fill="#fa7c30" d="m897 128 2 1Z"/><path fill="#fb7b2e"/><path fill="#fd7d2f"/><path fill="#fe8031" d="m345 126 2 1Z"/><path fill="#f97c30"/><path fill="#fe782c"/><path fill="#fa772c" d="m926 121 2 1Z"/><path fill="#fd7a2c"/><path fill="#ff7b2f"/><path fill="#fd782c"/><path fill="#fb7a2e"/><path fill="#fe7b2e" d="m684 118 2 1Z"/><path fill="#fe782b" d="m569 118 2 1Z"/><path fill="#f9772e"/><path fill="#fc7b31"/><path fill="#f87731"/><path fill="#f77c30" d="m970 113 2 1Z"/><path fill="#fa7a2c"/><path fill="#fb8f4b"/><path fill="#f17831"/><path fill="#fc7c30" d="m521 107 2 1Z"/><path fill="#f87b2f"/><path fill="#fe7b2f"/><path fill="#fb792e" d="m788 102 2 1Z"/><path fill="#fb7a2e" d="m777 102 2 1Z"/><path fill="#e97d3b" d="m971 98 2 1Z"/><path fill="#f87d35" d="m807 98 2 1Z"/><path fill="#f77c32" d="m573 98 2 1Z"/><path fill="#f5914e"/><path fill="#f7914d"/><path fill="#fc792f" d="m726 92 2 1Z"/><path fill="#fb7b2e" d="m780 89 2 1Z"/><path fill="#f97c32"/><path fill="#fc7c32" d="m343 89 2 1Z"/><path fill="#f77b30" d="m650 79 2 1Z"/><path fill="#f47c35" d="m735 72 2 1Z"/><path fill="#f47a33" d="m667 71 2 1Z"/><path fill="#f67e36" d="m395 71 2 1Z"/><path fill="#f47c33" d="m681 70 2 1Z"/><path fill="#f77a30" d="m678 70 2 1Z"/><path fill="#c57440"/><path fill="#f2823d" d="m212 14 2 1Z"/><path fill="#f8883e" d="m105 6 2 1Z"/><path fill="#c27a4e"/><path fill="#cb7d4a"/><path fill="#e2864f"/><path fill="#b1795a"/><path fill="#cf7d49"/><path fill="#f48943"/><path fill="#e3854c"/><path fill="#f4853e"/><path fill="#f4863e"/><path fill="#d07e48"/><path fill="#e8884c"/><path fill="#cb7d4c"/><path fill="#fa8337"/><path fill="#fb7e36"/><path fill="#f98238"/><path fill="#f48a46"/><path fill="#d77f46"/><path fill="#ef8747"/><path fill="#fa8035"/><path fill="#d07f4b"/><path fill="#fc8237"/><path fill="#f98034"/><path fill="#f98238"/><path fill="#fb8238"/><path fill="#fc8337"/><path fill="#f68942"/><path fill="#d27f4a"/><path fill="#f88942"/><path fill="#bc7d55"/><path fill="#f78137"/><path fill="#df7f43"/><path fill="#f68235"/><path fill="#c37b50"/><path fill="#c97e4e"/><path fill="#f5853d"/><path fill="#f48841"/><path fill="#fc843a"/><path fill="#ff8234"/><path fill="#fd8337"/><path fill="#f68844"/><path fill="#f38b4b"/><path fill="#f7843a"/><path fill="#f9833a"/><path fill="#fa873b"/><path fill="#f68b48"/><path fill="#f7853a"/><path fill="#fb8233"/><path fill="#f9853a"/><path fill="#f48e4b"/><path fill="#fe8233"/><path fill="#fd8030"/><path fill="#ff7e33"/><path fill="#fe7e31"/><path fill="#fc853a"/><path fill="#eb7f3c"/><path fill="#f4843c"/><path fill="#fd8033"/><path fill="#ff8134"/><path fill="#ef7c37"/><path fill="#ee7f3a"/><path fill="#f17c37"/><path fill="#ee7b36"/><path fill="#f07e39"/><path fill="#f1803d"/><path fill="#ff7d31"/><path fill="#fe8034"/><path fill="#c57c4f"/><path fill="#ef7e37"/><path fill="#f2813b"/><path fill="#ff8032"/><path fill="#ff8032"/><path fill="#ff8133"/><path fill="#ff8035"/><path fill="#e68042"/><path fill="#ed7e39"/><path fill="#ec7b37"/><path fill="#ee7e3a"/><path fill="#f27e38"/><path fill="#f07e36"/><path fill="#ee7d36"/><path fill="#f27d39"/><path fill="#ef7f39"/><path fill="#f37e37"/><path fill="#f17f38"/><path fill="#f07c35"/><path fill="#f07d38"/><path fill="#f17c36"/><path fill="#ed7d37"/><path fill="#f08039"/><path fill="#f3823c"/><path fill="#f58039"/><path fill="#f18745"/><path fill="#f78946"/><path fill="#ee7e39"/><path fill="#f57d36"/><path fill="#ea803c"/><path fill="#f17f3a"/><path fill="#f37e37"/><path fill="#f18039"/><path fill="#f07f38"/><path fill="#f3853e"/><path fill="#f38039"/><path fill="#f37e37"/><path fill="#f68035"/><path fill="#f47d35"/><path fill="#f67f35"/><path fill="#f5813b"/><path fill="#f78441"/><path fill="#f38c4c"/><path fill="#f67d36"/><path fill="#f58035"/><path fill="#f78945"/><path fill="#f57d37"/><path fill="#f38038"/><path fill="#f37f36"/><path fill="#f67e32"/><path fill="#f58840"/><path fill="#fc863b"/><path fill="#f77c34"/><path fill="#f57c36"/><path fill="#f77e37"/><path fill="#e9813f"/><path fill="#f47e39"/><path fill="#f77f39"/><path fill="#f57f37"/><path fill="#f47c34"/><path fill="#f77d34"/><path fill="#fa7b34"/><path fill="#f8803a"/><path fill="#f37f38"/><path fill="#f3823c"/><path fill="#f67d34"/><path fill="#f77c36"/><path fill="#f37f36"/><path fill="#f3853f"/><path fill="#f57c35"/><path fill="#f87b36"/><path fill="#f88136"/><path fill="#f47e34"/><path fill="#f87e37"/><path fill="#fa8337"/><path fill="#f7833e"/><path fill="#f8863e"/><path fill="#f48c45"/><path fill="#fd8435"/><path fill="#f87d34"/><path fill="#f77a34"/><path fill="#f27d35"/><path fill="#f78037"/><path fill="#f77f37"/><path fill="#f57e35"/><path fill="#f58239"/><path fill="#f6823a"/><path fill="#fe843a"/><path fill="#f88038"/><path fill="#f47e38"/><path fill="#f47e37"/><path fill="#fa7a34"/><path fill="#f77e36"/><path fill="#f57f36"/><path fill="#f8823d"/><path fill="#f7843a"/><path fill="#fd7f33"/><path fill="#f67d32"/><path fill="#f67c34"/><path fill="#f97f33"/><path fill="#f78435"/><path fill="#f87f34"/><path fill="#f57e37"/><path fill="#f57f36"/><path fill="#f78138"/><path fill="#f6893f"/><path fill="#f88640"/><path fill="#f9883f"/><path fill="#ff8032"/><path fill="#f27e37"/><path fill="#f57e35"/><path fill="#f87e37"/><path fill="#f77d32"/><path fill="#f87b33"/><path fill="#fb8034"/><path fill="#f88039"/><path fill="#fb8539"/><path fill="#fc8439"/><path fill="#fe8335"/><path fill="#f47e36"/><path fill="#f78237"/><path fill="#f88039"/><path fill="#ff8033"/><path fill="#f67e35"/><path fill="#f47d36"/><path fill="#f77e34"/><path fill="#f67c34"/><path fill="#f58035"/><path fill="#f98036"/><path fill="#f68037"/><path fill="#f67e35"/><path fill="#fa8138"/><path fill="#f98036"/><path fill="#f8823b"/><path fill="#f48c41"/><path fill="#fc8c44"/><path fill="#fb8b42"/><path fill="#f7843a"/><path fill="#f8792e"/><path fill="#f58036"/><path fill="#fa8135"/><path fill="#fd8942"/><path fill="#d78047"/><path fill="#f67a2d"/><path fill="#f87e31"/><path fill="#f88137"/><path fill="#fa7a32"/><path fill="#f7863c"/><path fill="#fd8237"/><path fill="#f78037"/><path fill="#f4843a"/><path fill="#f98137"/><path fill="#f87f35"/><path fill="#fd8a43"/><path fill="#f98034"/><path fill="#f78239"/><path fill="#fb8038"/><path fill="#ee833d"/><path fill="#f5803a"/><path fill="#f37c34"/><path fill="#fa8337"/><path fill="#f98539"/><path fill="#ff8336"/><path fill="#fe8537"/><path fill="#fd7f30"/><path fill="#f68038"/><path fill="#f67c37"/><path fill="#f97c31"/><path fill="#f37f35"/><path fill="#f97e35"/><path fill="#f57f36"/><path fill="#fc8339"/><path fill="#fb823b"/><path fill="#fd8336"/><path fill="#fe8135"/><path fill="#f07c35"/><path fill="#f98137"/><path fill="#ff8133"/><path fill="#f68239"/><path fill="#f68037"/><path fill="#f97f35"/><path fill="#f87e35"/><path fill="#f88138"/><path fill="#fa833a"/><path fill="#f68137"/><path fill="#f58037"/><path fill="#f87a30"/><path fill="#f68037"/><path fill="#f68239"/><path fill="#f47d34"/><path fill="#f9853a"/><path fill="#fe853a"/><path fill="#fe8e49"/><path fill="#fd8f49"/><path fill="#fd8c46"/><path fill="#dd8145"/><path fill="#f5833c"/><path fill="#f5803d"/><path fill="#f48138"/><path fill="#f6823c"/><path fill="#f38139"/><path fill="#f8833d"/><path fill="#f7813b"/><path fill="#f38239"/><path fill="#f6833a"/><path fill="#f68239"/><path fill="#f78137"/><path fill="#f87f36"/><path fill="#f68438"/><path fill="#f58339"/><path fill="#f88339"/><path fill="#f4823c"/><path fill="#f58239"/><path fill="#f4823a"/><path fill="#f98138"/><path fill="#fb893f"/><path fill="#fe8537"/><path fill="#f58139"/><path fill="#f28137"/><path fill="#f6833b"/><path fill="#f6833a"/><path fill="#f1803b"/><path fill="#f87e38"/><path fill="#f88136"/><path fill="#f78036"/><path fill="#f98038"/><path fill="#f48337"/><path fill="#f88236"/><path fill="#f5863c"/><path fill="#f98138"/><path fill="#f77e34"/><path fill="#f78438"/><path fill="#f7803a"/><path fill="#f8843a"/><path fill="#f68239"/><path fill="#f8843d"/><path fill="#f87e33"/><path fill="#fc8436"/><path fill="#ff8337"/><path fill="#fa8435"/><path fill="#fd8437"/><path fill="#f68439"/><path fill="#f8863c"/><path fill="#ff8137"/><path fill="#fd8438"/><path fill="#f9873d"/><path fill="#f78840"/><path fill="#f7823a"/><path fill="#e38041"/><path fill="#fc843a"/><path fill="#f98537"/><path fill="#fa873d"/><path fill="#f98b41"/><path fill="#f7833a"/><path fill="#ff8738"/><path fill="#fe8b41"/><path fill="#f78236"/><path fill="#fea16a"/><path fill="#ffbb8f"/><path fill="#fea168"/><path fill="#fb8f49"/><path fill="#f8924f"/><path fill="#fb8943"/><path fill="#feb581"/><path fill="#f37c36"/><path fill="#f67d32"/><path fill="#fc8134"/><path fill="#f27c38"/><path fill="#f67c33"/><path fill="#f88034"/><path fill="#fc8236"/><path fill="#f87e34"/><path fill="#fa7d34"/><path fill="#fe7e33"/><path fill="#fd7e34"/><path fill="#fc8137"/><path fill="#f37d38"/><path fill="#f77f35"/><path fill="#f77e36"/><path fill="#f97e33"/><path fill="#f88136"/><path fill="#fa7e34"/><path fill="#fa8136"/><path fill="#fb7f35"/><path fill="#fa8034"/><path fill="#fc7c31"/><path fill="#fd7f33"/><path fill="#ff8137"/><path fill="#fe8135"/><path fill="#fd8237"/><path fill="#ff8438"/><path fill="#fb873d"/><path fill="#f87a30"/><path fill="#f67f36"/><path fill="#fb7f34"/><path fill="#fe7d31"/><path fill="#fe8035"/><path fill="#fb8035"/><path fill="#f77c33"/><path fill="#f67c32"/><path fill="#f57e34"/><path fill="#f8782f"/><path fill="#fe792e"/><path fill="#fd792c"/><path fill="#fc7d32"/><path fill="#f9782d"/><path fill="#f9792f"/><path fill="#fd883f"/><path fill="#fb792d"/><path fill="#fd7c2f"/><path fill="#fb7c2e"/><path fill="#fc7b2e"/><path fill="#f77d32"/><path fill="#fb792e"/><path fill="#fd782d"/><path fill="#fd7d2f"/><path fill="#fe7a2d"/><path fill="#ff7d31"/><path fill="#fa7b31"/><path fill="#f97f34"/><path fill="#ff7a2d"/><path fill="#fe7c31"/><path fill="#fe7e32"/><path fill="#fb883c"/><path fill="#fa7b30"/><path fill="#fd7f32"/><path fill="#ff7d2e"/><path fill="#fe7c2f"/><path fill="#fe883a"/><path fill="#f97b2d"/><path fill="#ff7b2f"/><path fill="#f97d33"/><path fill="#ff7c2e"/><path fill="#f87d33"/><path fill="#f67d35"/><path fill="#fc7b2f"/><path fill="#f77a2f"/><path fill="#f6782e"/><path fill="#fb7d31"/><path fill="#fd7c2c"/><path fill="#fd853d"/><path fill="#fd7c2e"/><path fill="#ff792a"/><path fill="#fe7e31"/><path fill="#f97e34"/><path fill="#fe7b2d"/><path fill="#fc7e32"/><path fill="#fb792f"/><path fill="#f97c30"/><path fill="#fc7d30"/><path fill="#ff7c2c"/><path fill="#ff7e32"/><path fill="#fc7d2f"/><path fill="#fd7b2d"/><path fill="#fa7a2e"/><path fill="#fd792d"/><path fill="#ff7b2d"/><path fill="#ff792b"/><path fill="#fd792d"/><path fill="#fb792e"/><path fill="#ff7c2e"/><path fill="#fc7e2e"/><path fill="#f97930"/><path fill="#fc7d2e"/><path fill="#ff7e30"/><path fill="#fd7b2c"/><path fill="#f87a30"/><path fill="#fc792c"/><path fill="#f77931"/><path fill="#fc7b2f"/><path fill="#fd7c2f"/><path fill="#fc7a30"/><path fill="#fe7c30"/><path fill="#f87b36"/><path fill="#fe7729"/><path fill="#ff792b"/><path fill="#fa7e31"/><path fill="#fe7a2e"/><path fill="#fa7b2e"/><path fill="#ff7629"/><path fill="#fe8133"/><path fill="#fa7c30"/><path fill="#fe782b"/><path fill="#fc7a2c"/><path fill="#fc7c2e"/><path fill="#fd7c2f"/><path fill="#fe7b2e"/><path fill="#ff7a2c"/><path fill="#ff7a2d"/><path fill="#fd7b2c"/><path fill="#fb782c"/><path fill="#fc7a29"/><path fill="#fb7e31"/><path fill="#fb7d30"/><path fill="#ff782c"/><path fill="#fd7c2c"/><path fill="#fd782d"/><path fill="#ff7d2e"/><path fill="#ff7a2c"/><path fill="#fc7c30"/><path fill="#ff7525"/><path fill="#ff792e"/><path fill="#ff7a30"/><path fill="#fe7a2f"/><path fill="#fc853b"/><path fill="#fc7a2e"/><path fill="#fd7b30"/><path fill="#ff7d2c"/><path fill="#ff7b2c"/><path fill="#ff7c2b"/><path fill="#fc7a2e"/><path fill="#fb7c30"/><path fill="#f7732c"/><path fill="#fd792b"/><path fill="#fe782a"/><path fill="#f3934b"/><path fill="#f97b31"/><path fill="#fb7931"/><path fill="#fe792b"/><path fill="#fd7a2e"/><path fill="#fd792c"/><path fill="#fd7b30"/><path fill="#ff7729"/><path fill="#fe7c2d"/><path fill="#ff7a2e"/><path fill="#fe7b2d"/><path fill="#fc7b2e"/><path fill="#ff7a2b"/><path fill="#fc7a2e"/><path fill="#ff7f2f"/><path fill="#fc772d"/><path fill="#ff7a2d"/><path fill="#fe7a2d"/><path fill="#ff7b2e"/><path fill="#ff7e33"/><path fill="#ff792e"/><path fill="#fd7b2d"/><path fill="#fb7d32"/><path fill="#fc7e31"/><path fill="#ff7c2d"/><path fill="#fe7b2b"/><path fill="#ff7b2c"/><path fill="#fd782b"/><path fill="#fb7a2c"/><path fill="#fc792b"/><path fill="#fb7a2f"/><path fill="#fd7b2d"/><path fill="#fb792d"/><path fill="#ff7a2e"/><path fill="#fe7b2e"/><path fill="#fd7c30"/><path fill="#fa7b2e"/><path fill="#ff792b"/><path fill="#ff7b2e"/><path fill="#fb7b2e"/><path fill="#fb772c"/><path fill="#ff792b"/><path fill="#fd7c2d"/><path fill="#f78035"/><path fill="#fc7c2e"/><path fill="#ff792a"/><path fill="#ff7b2c"/><path fill="#fb7d2e"/><path fill="#fd7b2f"/><path fill="#ff7e2e"/><path fill="#fb782c"/><path fill="#fe792b"/><path fill="#fd7a2d"/><path fill="#ff782a"/><path fill="#ff7a2d"/><path fill="#ff7c2d"/><path fill="#f8782d"/><path fill="#fc7d32"/><path fill="#fa7f2f"/><path fill="#fd7f34"/><path fill="#f87c2f"/><path fill="#ff7f30"/><path fill="#fe7e31"/><path fill="#f87a32"/><path fill="#f87b2e"/><path fill="#fb7a2a"/><path fill="#fc7d2e"/><path fill="#fd7c33"/><path fill="#fc7b2a"/><path fill="#fd7a32"/><path fill="#fd792d"/><path fill="#fb7b2d"/><path fill="#fe7a2d"/><path fill="#fb7b2b"/><path fill="#ff7c30"/><path fill="#f97a31"/><path fill="#fd782d"/><path fill="#fc7c31"/><path fill="#fe792d"/><path fill="#fc7c32"/><path fill="#fc7c2d"/><path fill="#fe7d2c"/><path fill="#fe7a2e"/><path fill="#ff7c2d"/><path fill="#ff7a2e"/><path fill="#ff7d30"/><path fill="#fb8a3e"/><path fill="#ff7b2e"/><path fill="#fa792d"/><path fill="#fd792f"/><path fill="#ff7d30"/><path fill="#ff7c30"/><path fill="#fa8f4b"/><path fill="#fa7c30"/><path fill="#fa7b2f"/><path fill="#f97930"/><path fill="#fe7c2f"/><path fill="#ff7c2e"/><path fill="#f8782f"/><path fill="#fd7929"/><path fill="#fe7628"/><path fill="#ff7c2c"/><path fill="#fa7b2f"/><path fill="#fd7c2e"/><path fill="#ff7b2e"/><path fill="#fb7c31"/><path fill="#fb7a2e"/><path fill="#fc7e30"/><path fill="#fc792b"/><path fill="#fc792e"/><path fill="#ff7c2e"/><path fill="#fc792c"/><path fill="#ff7a2c"/><path fill="#fc7e32"/><path fill="#fb7c2f"/><path fill="#fa914c"/><path fill="#f47731"/><path fill="#f97b33"/><path fill="#f97a2e"/><path fill="#f97b31"/><path fill="#f6782e"/><path fill="#fd7c2e"/><path fill="#fa7c30"/><path fill="#fe7f31"/><path fill="#ff7b2d"/><path fill="#f77b30"/><path fill="#f77d33"/><path fill="#f7782f"/><path fill="#fb7e2f"/><path fill="#f87a30"/><path fill="#f87f32"/><path fill="#fb7d2e"/><path fill="#f77c33"/><path fill="#f87c30"/><path fill="#fa7b2f"/><path fill="#fa7e33"/><path fill="#f77c33"/><path fill="#fa7a2d"/><path fill="#f87f33"/><path fill="#f87f34"/><path fill="#fa7b2e"/><path fill="#fd7b2f"/><path fill="#fc7d30"/><path fill="#fb792c"/><path fill="#fd7b2f"/><path fill="#fa7d33"/><path fill="#f07a34"/><path fill="#f97a32"/><path fill="#f97d31"/><path fill="#ff7b2d"/><path fill="#f47c34"/><path fill="#f97d30"/><path fill="#fb792e"/><path fill="#fe7b2f"/><path fill="#f67c33"/><path fill="#f77e34"/><path fill="#f8792f"/><path fill="#f88236"/><path fill="#fc7d32"/><path fill="#fb7a2f"/><path fill="#fd7f35"/><path fill="#fa7b2f"/><path fill="#fe8432"/><path fill="#f8924c"/><path fill="#f97932"/><path fill="#fc8134"/><path fill="#ff7c2f"/><path fill="#fd7c31"/><path fill="#fa7831"/><path fill="#fc7932"/><path fill="#fb9c5d"/><path fill="#fc7b2e"/><path fill="#fe7a2c"/><path fill="#fd7a2d"/><path fill="#fd7b2d"/><path fill="#fc7528"/><path fill="#f8934f"/><path fill="#f97a2e"/><path fill="#fa7a2e"/><path fill="#fa7a2e"/><path fill="#fd792d"/><path fill="#fba166"/><path fill="#fb7b2e"/><path fill="#f67830"/><path fill="#f47b32"/><path fill="#fe7c2f"/><path fill="#e87d3b"/><path fill="#fca570"/><path fill="#e97d3a"/><path fill="#f97c2f"/><path fill="#f7792d"/><path fill="#fda26b"/><path fill="#fba064"/><path fill="#f87b32"/><path fill="#fea061"/><path fill="#f7843b"/><path fill="#f97b31"/><path fill="#fd9857"/><path fill="#fa7d31"/><path fill="#e37a3c"/><path fill="#f67b32"/><path fill="#f37f34"/><path fill="#f99452"/><path fill="#f67a33"/><path fill="#f5782f"/><path fill="#f47a2f"/><path fill="#f67a32"/><path fill="#f98034"/><path fill="#f98036"/><path fill="#fa8037"/><path fill="#f77f38"/><path fill="#f67a33"/><path fill="#f57f36"/><path fill="#f6833d"/><path fill="#f6853b"/><path fill="#f47a32"/><path fill="#f27b33"/><path fill="#f27b34"/><path fill="#f57f33"/><path fill="#f77e32"/><path fill="#f37e36"/><path fill="#ee7d37"/><path fill="#f6914e"/><path fill="#ed7c36"/><path fill="#f98f4a"/><path fill="#fa904a"/><path fill="#f89251"/><path fill="#e77c39"/><path fill="#d6773e"/><path fill="#f89450"/><path fill="#f9914d"/><path fill="#fc954e"/><path fill="#f49053"/><path fill="#dd7a3c"/><path fill="#fc924e"/><path fill="#dd7b3d"/><path fill="#f99451"/><path fill="#d3783e"/><path fill="#d6793e"/><path fill="#c27141"/><path fill="#f98b43"/><path fill="#f58d4c"/><path fill="#cd7640"/><path fill="#b16f47"/><path fill="#cf773f"/><path fill="#fb8941"/><path fill="#c27241"/><path fill="#cb743f"/><path fill="#f48f4c"/><path fill="#f58c49"/><path fill="#f9873f"/><path fill="#c9753e"/><path fill="#bc7041"/><path fill="#c67340"/><path fill="#c6743f"/><path fill="#f7833a"/><path fill="#f7823b"/><path fill="#f5833d"/><path fill="#f98a44"/><path fill="#c07140"/><path fill="#a66a46"/><path fill="#c3723f"/><path fill="#f6843f"/><path fill="#ba6d40"/><path fill="#f58336"/><path fill="#ac6a42"/><path fill="#c37140"/><path fill="#ba6e40"/><path fill="#a26746"/><path fill="#bd6f3f"/><path fill="#f08542"/><path fill="#ba6f40"/><path fill="#f6853c"/><path fill="#be6f3f"/><path fill="#f9863f"/><path fill="#e88547"/><path fill="#f5883e"/><path fill="#f7853c"/></svg>