<?xml version="1.0" standalone="no"?>
<!DOCTYPE svg PUBLIC "-//W3C//DTD SVG 20010904//EN"
 "http://www.w3.org/TR/2001/REC-SVG-20010904/DTD/svg10.dtd">
<svg version="1.0" xmlns="http://www.w3.org/2000/svg"
 width="1294.000000pt" height="317.000000pt" viewBox="0 0 1294.000000 317.000000"
 preserveAspectRatio="xMidYMid meet">

<g transform="translate(0.000000,317.000000) scale(0.100000,-0.100000)"
fill="#eb662b" stroke="none">
<path d="M1862 2608 l3 -233 53 -3 52 -3 0 235 0 236 -55 0 -55 0 2 -232z"/>
<path d="M1430 2655 c-18 -13 -38 -26 -43 -28 -12 -4 125 -288 147 -306 11 -9
23 -8 55 5 23 9 41 21 41 28 0 6 -29 68 -65 136 -35 69 -71 140 -79 158 -8 17
-17 32 -19 32 -2 0 -18 -11 -37 -25z"/>
<path d="M2385 2644 c-8 -20 -15 -40 -15 -45 0 -5 -4 -9 -10 -9 -5 0 -10 -6
-10 -12 0 -7 -25 -62 -54 -123 -30 -60 -54 -110 -53 -111 1 0 23 -12 49 -27
l48 -26 74 152 c41 84 76 158 78 166 2 7 -10 22 -27 32 -16 10 -38 23 -47 29
-15 9 -20 5 -33 -26z"/>
<path d="M919 2504 l-44 -45 178 -174 c97 -96 181 -175 187 -175 13 0 81 61
78 70 -2 5 -82 89 -179 188 l-177 180 -43 -44z"/>
<path d="M2711 2356 l-174 -174 43 -41 c24 -23 45 -40 46 -39 102 96 344 344
344 353 0 12 -67 75 -80 75 -3 0 -83 -78 -179 -174z"/>
<path d="M3667 2323 c-4 -3 -7 -48 -7 -100 l0 -93 125 0 125 0 2 -492 3 -493
148 -3 147 -3 0 496 0 495 135 0 135 0 0 100 0 100 -403 0 c-222 0 -407 -3
-410 -7z"/>
<path d="M9053 2230 l2 -100 123 0 122 0 0 -157 c1 -87 0 -310 0 -495 l-1
-338 151 0 150 0 0 495 0 495 125 0 125 0 0 100 0 100 -399 0 -400 0 2 -100z"/>
<path d="M1849 2256 c-3 -3 -35 -10 -72 -16 -65 -10 -94 -20 -187 -63 -146
-67 -291 -204 -358 -337 -64 -129 -91 -232 -92 -357 0 -113 4 -120 48 -87 19
15 47 39 61 54 14 15 52 50 84 78 86 75 163 81 232 20 l34 -29 63 57 c35 31
137 127 227 213 90 86 176 164 190 173 29 20 92 24 121 8 11 -6 47 -45 80 -88
33 -42 84 -105 112 -138 29 -34 87 -102 128 -150 41 -49 93 -106 114 -128 37
-35 43 -38 84 -33 24 3 47 9 52 13 11 12 -13 153 -40 237 -76 234 -259 430
-485 519 -94 37 -375 75 -396 54z"/>
<path d="M8251 2078 c-67 -20 -74 -25 -121 -73 -30 -30 -60 -105 -60 -147 1
-54 63 -193 93 -206 14 -7 7 -30 -15 -45 -87 -58 -138 -141 -138 -225 0 -58
18 -132 32 -132 4 0 8 -6 8 -13 0 -22 51 -62 109 -86 49 -21 67 -23 180 -19
122 3 128 4 205 42 l78 38 37 -36 37 -36 139 0 140 1 -113 108 -113 109 30 48
c17 26 31 55 31 64 0 9 4 20 9 25 10 11 31 114 31 152 0 23 -1 24 -92 21 -73
-2 -93 -6 -95 -18 -1 -8 -5 -40 -8 -70 -3 -30 -14 -66 -25 -80 l-18 -24 -66
66 c-38 39 -66 75 -66 87 0 12 4 21 8 21 19 0 95 86 118 133 37 76 40 123 14
184 -26 60 -62 89 -144 114 -76 24 -143 23 -225 -3z m168 -169 c20 -36 7 -90
-33 -135 l-33 -37 -20 22 c-33 36 -48 94 -33 131 16 38 36 51 75 47 20 -1 34
-10 44 -28z m-77 -441 c23 -29 63 -71 87 -94 24 -23 41 -46 38 -51 -10 -15
-121 -36 -148 -28 -49 15 -69 44 -69 101 0 49 25 123 42 124 3 0 26 -23 50
-52z"/>
<path d="M9955 2081 c-50 -13 -70 -25 -115 -71 -85 -86 -95 -128 -95 -410 0
-193 3 -232 18 -275 36 -98 67 -132 154 -172 50 -23 63 -25 166 -21 82 4 121
10 147 23 84 44 120 89 150 186 20 63 21 87 18 303 -2 171 -6 238 -15 248 -7
6 -13 19 -13 28 0 27 -54 99 -91 123 -88 55 -207 69 -324 38z m168 -179 c38
-42 49 -474 14 -555 -26 -61 -84 -70 -122 -19 -18 25 -20 45 -23 257 -4 251 0
287 29 316 25 25 80 25 102 1z"/>
<path d="M12245 2089 c-85 -27 -99 -32 -109 -40 -98 -77 -131 -187 -89 -299
26 -69 67 -115 177 -197 131 -98 156 -126 156 -174 0 -50 -27 -69 -100 -69
-59 0 -129 30 -178 76 -31 28 -38 25 -47 -23 -4 -21 -10 -42 -15 -48 -4 -5
-13 -28 -19 -50 -12 -46 -5 -55 84 -102 44 -23 65 -27 170 -31 105 -3 127 -1
173 17 74 30 117 65 143 117 18 39 21 58 17 138 -3 80 -7 98 -32 137 -26 41
-141 141 -210 183 -66 39 -86 66 -86 115 0 41 4 48 31 64 29 16 34 16 87 1 32
-9 76 -27 98 -41 37 -21 42 -22 48 -7 6 17 36 153 36 166 0 13 -72 45 -138 62
-70 18 -150 20 -197 5z"/>
<path d="M4400 1611 l0 -471 120 0 120 0 0 175 c0 146 2 175 14 175 17 0 46
-38 46 -60 0 -8 7 -28 15 -44 8 -15 15 -33 15 -40 0 -6 11 -33 25 -61 13 -27
25 -53 25 -57 0 -5 8 -26 17 -48 l18 -40 123 0 c123 0 123 0 117 23 -10 30
-66 160 -75 172 -4 6 -13 28 -20 50 -7 22 -16 42 -20 45 -4 3 -12 25 -18 49
l-11 45 42 37 c67 58 89 113 90 222 1 140 -37 212 -138 265 -49 26 -54 27
-277 30 l-228 4 0 -471z m330 291 c61 -12 84 -87 59 -189 -14 -53 -53 -83
-111 -83 l-38 0 0 138 c0 76 3 142 7 146 4 4 17 4 28 1 11 -4 36 -10 55 -13z"/>
<path d="M5292 2023 c-6 -32 -20 -96 -31 -143 -60 -253 -68 -289 -120 -525
-11 -49 -25 -108 -30 -130 -23 -87 -25 -85 99 -85 80 0 112 3 114 13 2 6 13
50 24 97 l19 85 99 0 98 0 7 -35 c4 -19 13 -63 20 -97 l12 -63 118 0 c133 0
129 -2 105 72 -7 24 -26 97 -41 163 -14 66 -32 140 -40 165 -7 25 -16 61 -20
80 -3 19 -12 58 -20 85 -18 69 -53 210 -65 270 -6 28 -15 62 -21 78 l-11 27
-152 0 -152 0 -12 -57z m181 -200 c26 -121 49 -255 50 -288 l2 -40 -58 -3
c-71 -4 -75 4 -58 102 7 39 17 98 22 131 5 33 12 75 15 93 6 39 20 42 27 5z"/>
<path d="M5787 2023 c20 -78 51 -221 69 -318 8 -44 17 -87 21 -95 3 -8 15 -51
25 -95 10 -44 27 -118 38 -165 11 -47 25 -113 32 -147 l12 -63 148 0 147 0 6
38 c4 20 11 48 15 62 5 14 16 61 24 105 21 110 51 247 59 265 3 8 13 51 21 95
26 135 51 250 57 260 4 6 10 34 14 63 l7 52 -110 0 -110 0 -6 -47 c-4 -27 -11
-59 -16 -73 -10 -25 -28 -132 -55 -320 -17 -120 -35 -184 -46 -173 -5 5 -14
44 -20 88 -6 44 -13 84 -16 88 -5 9 -30 136 -59 307 -24 146 -6 130 -148 130
l-123 0 14 -57z"/>
<path d="M6570 1610 l0 -470 268 2 267 3 3 82 3 82 -158 3 -158 3 -3 107 -3
107 118 3 118 3 0 85 0 85 -117 3 -118 3 0 94 0 94 143 3 142 3 3 88 3 87
-256 0 -255 0 0 -470z"/>
<path d="M7208 1610 l2 -470 268 2 267 3 0 84 0 85 -152 -3 -153 -3 0 386 0
386 -117 0 -118 0 3 -470z"/>
<path d="M10530 1713 c0 -203 4 -384 9 -405 15 -63 61 -120 120 -150 50 -26
64 -28 173 -28 105 0 126 3 172 24 63 29 106 80 129 153 15 44 17 104 17 412
l0 361 -119 0 -118 0 -2 -361 c-1 -198 -6 -371 -11 -384 -15 -40 -84 -49 -116
-14 -18 20 -19 44 -22 390 l-3 369 -114 0 -115 0 0 -367z"/>
<path d="M11300 1611 l0 -471 115 0 115 0 0 169 c0 244 13 243 110 -3 l65
-166 127 0 127 0 -25 58 c-14 31 -29 66 -33 77 -5 11 -20 45 -34 75 -14 30
-37 81 -52 113 l-26 58 44 42 c25 23 55 64 67 91 19 44 22 62 18 150 -7 140
-36 193 -133 244 -49 26 -56 26 -267 30 l-218 4 0 -471z m319 288 c25 -9 38
-23 52 -56 25 -58 24 -89 -3 -143 -25 -49 -56 -70 -105 -70 l-33 0 0 133 c0
74 3 137 7 140 10 10 46 8 82 -4z"/>
<path d="M3120 2029 c-30 -11 -73 -26 -95 -34 -179 -63 -237 -84 -241 -88 -2
-2 8 -25 22 -51 25 -44 28 -47 57 -40 17 3 38 10 47 15 8 4 58 22 110 39 52
17 109 37 125 45 17 7 45 16 63 20 37 8 38 14 15 72 -20 48 -26 50 -103 22z"/>
<path d="M678 2010 c-27 -48 -23 -67 14 -76 18 -3 51 -15 73 -24 76 -34 271
-100 292 -100 6 0 18 21 27 47 17 49 12 62 -24 63 -9 0 -24 6 -35 13 -11 7
-60 25 -110 41 -49 16 -104 35 -121 42 -18 7 -47 15 -65 19 -30 5 -36 3 -51
-25z"/>
<path d="M2112 1822 c-20 -20 -309 -291 -397 -372 -33 -30 -74 -65 -90 -77
l-30 -21 -40 32 c-22 18 -57 42 -78 55 l-37 23 -28 -25 c-117 -105 -171 -151
-223 -190 -13 -9 -47 -35 -74 -56 -28 -21 -66 -41 -85 -45 -22 -4 -56 -26 -92
-59 -50 -46 -109 -95 -266 -220 -26 -20 -92 -68 -147 -105 -55 -37 -102 -69
-105 -72 -3 -3 -25 -18 -50 -34 l-45 -30 30 -12 c17 -7 38 -13 47 -14 9 0 19
-4 23 -9 3 -5 31 -15 63 -22 31 -7 62 -16 68 -20 20 -15 407 -49 560 -49 84 0
204 6 266 14 62 8 146 17 187 21 40 3 79 9 87 12 8 3 14 1 14 -5 0 -11 -29
-23 -125 -51 -175 -50 -345 -71 -594 -71 -172 0 -202 -5 -119 -21 24 -4 67
-13 96 -19 132 -28 321 -37 481 -23 85 7 178 17 205 23 136 24 218 44 296 70
47 16 157 50 245 75 88 25 196 57 240 70 239 70 381 95 580 102 154 5 202 2
555 -37 41 -5 102 -9 135 -9 50 0 57 2 42 12 -26 17 -129 94 -147 110 -8 8
-53 42 -100 77 -47 35 -98 76 -115 91 -16 15 -57 50 -90 79 -33 29 -118 110
-190 179 -173 169 -195 185 -237 176 -32 -7 -132 -67 -144 -86 -21 -34 -61 4
-313 300 -97 115 -223 251 -232 251 -5 0 -17 -8 -27 -18z m67 -202 c10 -5 85
-85 167 -177 82 -92 182 -204 223 -248 95 -103 200 -250 188 -262 -4 -3 -105
51 -226 120 -241 138 -266 149 -257 120 18 -61 27 -154 17 -167 -7 -8 -74 -48
-149 -90 -75 -41 -157 -89 -182 -106 -41 -27 -70 -38 -70 -25 0 9 71 137 147
263 12 21 30 53 41 72 10 19 28 52 40 73 12 21 22 40 22 42 0 7 -109 75 -120
75 -5 0 -14 8 -19 18 -7 14 -4 32 14 70 43 93 128 232 142 232 2 0 12 -4 22
-10z m-687 -397 c54 -47 68 -62 68 -75 0 -4 -30 -48 -67 -97 -38 -49 -85 -115
-106 -146 -21 -30 -43 -53 -48 -50 -5 4 -9 25 -9 48 0 23 -3 52 -6 65 -8 29
-28 23 -108 -34 -33 -25 -77 -55 -96 -68 -20 -13 -61 -47 -93 -76 -35 -32 -63
-50 -72 -46 -30 11 10 69 160 226 105 111 305 300 317 300 4 0 31 -21 60 -47z
m1515 -132 c260 -262 262 -266 158 -266 l-59 0 -138 149 c-76 82 -138 154
-138 161 0 12 56 54 72 55 4 0 52 -44 105 -99z"/>
<path d="M537 1584 c-4 -4 -7 -29 -7 -56 l0 -48 233 2 232 3 0 50 0 50 -226 3
c-124 1 -228 -1 -232 -4z"/>
<path d="M2911 1568 c-5 -13 -6 -38 -4 -56 l5 -32 216 2 216 3 -1 25 c0 14 -1
37 -2 53 l-1 27 -210 0 c-209 0 -211 0 -219 -22z"/>
<path d="M6662 839 c-65 -20 -95 -163 -53 -256 24 -52 45 -63 116 -63 50 0 59
3 85 31 53 58 53 213 0 264 -32 31 -93 41 -148 24z m90 -66 c27 -25 26 -155
-2 -183 -24 -24 -30 -24 -56 -6 -16 12 -19 27 -19 101 0 65 4 88 15 95 22 14
41 12 62 -7z"/>
<path d="M4990 679 l0 -160 38 3 c29 2 37 7 38 23 1 11 2 39 3 63 l1 42 50 0
c49 0 50 1 50 29 0 29 -2 30 -52 33 -51 3 -53 4 -53 33 l0 30 68 3 c67 3 67 3
67 32 l0 30 -105 0 -105 0 0 -161z"/>
<path d="M5270 679 l0 -160 38 3 37 3 2 158 3 157 -40 0 -40 0 0 -161z"/>
<path d="M5450 681 l0 -161 36 0 36 0 -4 90 c-2 56 1 90 7 90 6 0 27 -41 49
-90 l39 -90 43 0 44 0 0 160 0 160 -35 0 -34 0 -3 -97 -3 -98 -33 70 c-56 119
-56 120 -101 123 l-41 3 0 -160z"/>
<path d="M5810 679 l0 -161 89 4 c78 3 93 6 115 27 35 33 51 114 36 184 -19
90 -44 107 -159 107 l-81 0 0 -161z m140 93 c24 -20 36 -81 26 -137 -6 -28
-14 -39 -39 -50 -52 -22 -57 -14 -57 101 0 103 0 104 24 104 13 0 34 -8 46
-18z"/>
<path d="M6286 788 c14 -29 39 -79 55 -111 20 -40 29 -72 29 -107 l0 -50 35 0
35 0 0 63 c0 38 6 74 16 92 49 92 74 144 74 154 0 8 -13 11 -36 9 -34 -3 -38
-7 -58 -55 -11 -29 -25 -51 -31 -50 -11 4 -30 38 -45 80 -8 24 -14 27 -54 27
l-45 0 25 -52z"/>
<path d="M6940 705 c0 -131 1 -137 25 -160 21 -22 33 -25 90 -25 37 0 75 5 85
10 28 15 40 72 40 198 l0 112 -40 0 -40 0 0 -125 c0 -113 -2 -125 -19 -135
-24 -12 -48 -4 -61 21 -6 10 -10 67 -10 128 l0 111 -35 0 -35 0 0 -135z"/>
<path d="M7276 692 c0 -81 2 -153 2 -159 1 -8 18 -13 43 -13 l40 0 -1 48 c-3
70 -2 74 17 70 10 -2 26 -26 39 -58 22 -55 22 -55 68 -58 l46 -3 -31 61 -31
62 22 23 c14 14 24 41 27 69 5 40 2 48 -25 76 -30 29 -33 30 -124 30 l-93 0 1
-148z m144 78 c24 -24 25 -38 4 -68 -18 -25 -59 -29 -68 -6 -11 27 -6 82 7 87
23 10 37 7 57 -13z"/>
<path d="M7815 808 c-6 -29 -37 -138 -66 -233 -15 -49 -12 -55 26 -55 32 0 35
3 45 40 11 39 12 40 55 40 47 0 65 -17 65 -59 0 -18 6 -21 39 -21 l39 0 -15
68 c-9 37 -19 72 -23 77 -4 6 -11 26 -14 45 -4 19 -15 56 -24 83 l-16 47 -52
0 c-51 0 -53 -1 -59 -32z m80 -111 c0 -49 -1 -52 -25 -52 -23 0 -25 3 -22 40
1 22 8 50 14 63 17 34 32 11 33 -51z"/>
<path d="M8098 680 l3 -160 70 0 c76 0 132 18 147 47 6 10 15 43 20 73 14 75
-2 143 -41 176 -25 21 -38 24 -115 24 l-87 0 3 -160z m151 84 c9 -8 15 -34 15
-66 1 -81 -9 -106 -47 -116 -17 -5 -35 -7 -39 -5 -10 5 -11 197 -2 206 10 9
56 -3 73 -19z"/>
<path d="M8404 823 c4 -9 11 -37 17 -62 5 -25 16 -64 23 -86 8 -22 22 -66 32
-97 l18 -58 51 0 52 0 11 43 c23 91 35 134 53 196 11 35 19 68 19 73 0 4 -15
8 -33 8 -41 0 -52 -19 -68 -121 -14 -79 -32 -114 -49 -89 -5 8 -10 28 -10 43
0 15 -6 42 -13 60 -8 18 -17 49 -21 70 -7 36 -9 37 -48 37 -33 0 -39 -3 -34
-17z"/>
<path d="M8750 680 l0 -160 105 0 105 0 0 30 0 30 -65 0 -65 0 0 35 0 35 50 0
c49 0 50 1 50 29 0 29 -2 30 -52 33 -52 3 -53 4 -53 33 1 30 2 30 65 35 62 5
65 6 68 33 l3 27 -105 0 -106 0 0 -160z"/>
<path d="M9050 680 l0 -160 30 0 29 0 3 103 3 102 18 -40 c10 -22 32 -68 49
-102 30 -63 31 -63 73 -63 l42 0 -1 160 -1 160 -32 0 -33 0 0 -95 c0 -59 -4
-95 -10 -95 -6 0 -13 8 -16 18 -19 55 -58 149 -66 160 -6 6 -28 12 -49 12
l-39 0 0 -160z"/>
<path d="M9370 815 c0 -20 5 -25 25 -26 36 -2 43 -3 49 -9 3 -3 6 -63 7 -133
l3 -127 38 0 37 0 3 133 3 132 38 3 c32 3 37 7 37 28 l0 24 -120 0 -120 0 0
-25z"/>
<path d="M9692 705 c3 -130 4 -136 29 -161 23 -22 35 -26 89 -27 59 0 65 2 92
32 28 31 28 33 28 161 l0 130 -35 0 -35 0 0 -114 c0 -97 -3 -117 -19 -137 -16
-20 -22 -22 -43 -12 -31 14 -38 45 -38 169 l0 94 -36 0 -36 0 4 -135z"/>
<path d="M10030 681 l0 -161 40 0 40 0 0 60 c0 45 3 60 14 60 13 0 45 -55 60
-102 4 -13 16 -18 46 -18 22 0 40 2 40 4 0 3 -12 32 -27 66 -16 38 -23 64 -16
68 5 4 18 21 28 39 16 27 17 37 7 70 -21 67 -22 68 -132 71 l-100 4 0 -161z
m153 78 c9 -32 -3 -57 -33 -69 -39 -16 -50 -6 -50 45 0 38 3 44 23 47 34 6 55
-2 60 -23z"/>
<path d="M10360 680 l0 -160 100 0 100 0 0 30 0 30 -60 0 -60 0 0 35 c0 35 0
35 45 35 43 0 45 1 45 30 0 29 -2 30 -44 30 -41 0 -44 2 -48 31 -6 38 18 50
81 42 40 -6 41 -5 41 26 l0 31 -100 0 -100 0 0 -160z"/>
<path d="M4040 685 l0 -35 379 0 379 0 -3 33 -2 32 -377 3 -376 2 0 -35z"/>
<path d="M10794 706 c-3 -8 -4 -23 -2 -33 3 -17 31 -18 541 -21 l537 -2 0 35
0 35 -535 0 c-457 0 -536 -2 -541 -14z"/>
<path d="M2825 596 c-77 -13 -171 -31 -210 -40 -90 -21 -438 -133 -490 -157
-22 -10 -65 -27 -95 -38 -30 -11 -46 -21 -35 -21 62 -5 331 3 349 9 11 5 55
12 97 15 42 4 94 12 115 17 21 6 73 18 114 29 41 10 109 28 150 40 170 49 219
62 305 82 50 11 122 25 162 32 85 13 99 23 47 31 -22 3 -55 10 -75 15 -64 17
-284 10 -434 -14z"/>
</g>
</svg>
